<svg width="1152" height="388" viewBox="0 0 1152 388" fill="none" xmlns="http://www.w3.org/2000/svg">
<g opacity="0.8">
<mask id="mask0_2212_1183" style="mask-type:alpha" maskUnits="userSpaceOnUse" x="0" y="-51" width="1152" height="439">
<rect y="-50.8477" width="1152" height="438.848" fill="url(#paint0_radial_2212_1183)"/>
</mask>
<g mask="url(#mask0_2212_1183)">
<path d="M280.178 143.736C291.152 147.38 303.029 144.355 312.933 138.386C313.429 138.087 313.929 137.792 314.432 137.501C339.385 123.094 368.086 122.015 391.227 132.198C401.192 136.583 407.179 146.952 405.994 157.775C403.242 182.907 387.957 207.223 363.004 221.63C362.5 221.92 361.995 222.206 361.488 222.486C351.367 228.078 342.809 236.852 340.477 248.178C340.141 249.812 338.688 250.975 337.02 250.947L303.885 250.389C301.969 250.357 300.442 248.778 300.475 246.862C300.48 246.579 300.519 246.296 300.593 246.023L306.318 224.655C306.794 222.878 306.545 220.983 305.625 219.39L287.683 188.313C286.763 186.719 285.247 185.556 283.469 185.08L262.102 179.355C260.251 178.859 259.152 176.956 259.649 175.105C259.722 174.831 259.828 174.568 259.966 174.319L276.051 145.345C276.861 143.886 278.594 143.21 280.178 143.736ZM338.718 179.565C342.55 186.203 351.038 188.477 357.675 184.645C364.313 180.813 366.587 172.325 362.755 165.688C358.923 159.05 350.435 156.776 343.798 160.608C337.16 164.44 334.886 172.928 338.718 179.565Z" fill="#072213"/>
<path d="M280.178 143.736C291.152 147.38 303.029 144.355 312.933 138.386C313.429 138.087 313.929 137.792 314.432 137.501C339.385 123.094 368.086 122.015 391.227 132.198C401.192 136.583 407.179 146.952 405.994 157.775C403.242 182.907 387.957 207.223 363.004 221.63C362.5 221.92 361.995 222.206 361.488 222.486C351.367 228.078 342.809 236.852 340.477 248.178C340.141 249.812 338.688 250.975 337.02 250.947L303.885 250.389C301.969 250.357 300.442 248.778 300.475 246.862C300.48 246.579 300.519 246.296 300.593 246.023L306.318 224.655C306.794 222.878 306.545 220.983 305.625 219.39L287.683 188.313C286.763 186.719 285.247 185.556 283.469 185.08L262.102 179.355C260.251 178.859 259.152 176.956 259.649 175.105C259.722 174.831 259.828 174.568 259.966 174.319L276.051 145.345C276.861 143.886 278.594 143.21 280.178 143.736ZM338.718 179.565C342.55 186.203 351.038 188.477 357.675 184.645C364.313 180.813 366.587 172.325 362.755 165.688C358.923 159.05 350.435 156.776 343.798 160.608C337.16 164.44 334.886 172.928 338.718 179.565Z" fill="#0F4C2C"/>
<path d="M340.475 248.173C343.495 238.361 347.436 233.426 355.919 225.795C325.748 237.905 309.293 235.943 303.747 234.496L300.59 246.017C300.517 246.291 300.477 246.574 300.472 246.857C300.44 248.773 301.967 250.352 303.883 250.384L337.018 250.942C338.686 250.97 340.138 249.807 340.475 248.173Z" fill="#072213"/>
<path d="M280.177 143.736C290.184 146.026 296.429 145.08 307.279 141.549C281.706 161.623 275.178 176.855 273.658 182.382L262.102 179.355C261.828 179.281 261.563 179.174 261.316 179.037C259.64 178.107 259.036 175.995 259.966 174.319L276.051 145.345C276.861 143.887 278.594 143.21 280.177 143.736Z" fill="#072213"/>
<path d="M363.188 165.438C367.158 172.315 364.801 181.107 357.925 185.078C351.048 189.048 342.256 186.692 338.286 179.815C334.316 172.939 336.671 164.146 343.547 160.175C350.424 156.205 359.218 158.561 363.188 165.438Z" stroke="#26BD6C"/>
<path d="M387.513 130.554C385.333 138.994 385.981 157.217 406.009 162.59" stroke="#26BD6C"/>
<path d="M315.807 202.487L309.596 226.687C308.082 232.585 302.391 236.414 296.358 235.595L267.453 231.669C259.675 230.612 254.988 222.496 257.962 215.231L269.015 188.236C271.322 182.601 277.484 179.587 283.349 181.225L307.412 187.946C313.7 189.703 317.43 196.163 315.807 202.487Z" fill="#072213" stroke="#26BD6C"/>
<path d="M304.098 234.715L291.114 226.605C280.96 220.262 274.624 209.287 274.208 197.323L273.676 182.023" stroke="#26BD6C" stroke-opacity="0.3"/>
<path d="M312.681 138.601C302.026 145.125 279.416 162.557 273.76 182.074" stroke="#26BD6C"/>
<path d="M361.23 222.693C350.253 228.658 324.02 239.463 304.29 234.603" stroke="#26BD6C"/>
<path d="M814.918 333.79V209.699C814.918 207.361 816.539 205.334 818.82 204.821L934.991 178.68L939.762 180.466C941.715 181.198 943.009 183.064 943.009 185.149V301.768L822.924 337.793L814.918 333.79Z" fill="#072213"/>
<path d="M814.918 333.79V209.699C814.918 207.361 816.539 205.334 818.82 204.821L934.991 178.68L939.762 180.466C941.715 181.198 943.009 183.064 943.009 185.149V301.768L822.924 337.793L814.918 333.79Z" fill="#072213"/>
<path d="M814.918 333.79V209.699C814.918 207.361 816.539 205.334 818.82 204.821L934.991 178.68L939.762 180.466C941.715 181.198 943.009 183.064 943.009 185.149V301.768L822.924 337.793L814.918 333.79Z" stroke="#26BD6C" stroke-linecap="round" stroke-linejoin="round"/>
<path d="M822.924 337.401V208.701M822.924 208.701L941.957 182.27M822.924 208.701L816.302 206.913" stroke="#26BD6C" stroke-opacity="0.3" stroke-miterlimit="10" stroke-linejoin="round"/>
<path d="M842.938 225.66V345.746L971.029 308.774V195.639L842.938 225.66Z" fill="#072213"/>
<path d="M842.938 225.66V345.746L971.029 308.774V195.639L842.938 225.66Z" fill="#0F4C2C"/>
<path d="M842.938 225.66V345.746L971.029 308.774V195.639L842.938 225.66Z" stroke="#26BD6C" stroke-linecap="round" stroke-linejoin="round"/>
<circle cx="2.19199" cy="2.19199" r="2.19199" transform="matrix(0.971399 -0.237453 0.110432 0.993884 951.803 204.366)" fill="#26BD6C"/>
<circle cx="2.19199" cy="2.19199" r="2.19199" transform="matrix(0.971399 -0.237453 0.110432 0.993884 957.227 203.041)" fill="#26BD6C"/>
<circle cx="2.19199" cy="2.19199" r="2.19199" transform="matrix(0.971399 -0.237453 0.110432 0.993884 962.65 201.715)" fill="#26BD6C"/>
<path d="M876.09 310.495L872.331 316.116L872.33 316.115L863.559 329.231L858.823 326.064L867.594 312.948L856.545 305.559L860.304 299.938L876.09 310.495Z" fill="#072213"/>
<path d="M878.266 324.8L878.265 318.57L898.287 312.785L898.287 319.026L878.266 324.8Z" fill="#072213"/>
<path d="M528.203 -3.64201V-127.733C528.203 -130.072 526.582 -132.098 524.301 -132.611L408.13 -158.752L403.359 -156.966C401.406 -156.235 400.112 -154.369 400.112 -152.283V-35.6648L520.197 0.360825L528.203 -3.64201Z" fill="#072213"/>
<path d="M528.203 -3.64201V-127.733C528.203 -130.072 526.582 -132.098 524.301 -132.611L408.13 -158.752L403.359 -156.966C401.406 -156.235 400.112 -154.369 400.112 -152.283V-35.6648L520.197 0.360825L528.203 -3.64201Z" fill="#072213"/>
<path d="M528.203 -3.64201V-127.733C528.203 -130.072 526.582 -132.098 524.301 -132.611L408.13 -158.752L403.359 -156.966C401.406 -156.235 400.112 -154.369 400.112 -152.283V-35.6648L520.197 0.360825L528.203 -3.64201Z" stroke="#26BD6C" stroke-linecap="round" stroke-linejoin="round"/>
<path d="M500.184 -111.772V8.31343L372.092 -28.6585V-141.793L500.184 -111.772Z" fill="#072213"/>
<path d="M500.184 -111.772V8.31343L372.092 -28.6585V-141.793L500.184 -111.772Z" fill="#0F4C2C"/>
<path d="M500.184 -111.772V8.31343L372.092 -28.6585V-141.793L500.184 -111.772Z" stroke="#26BD6C" stroke-linecap="round" stroke-linejoin="round"/>
<path d="M710.851 -6.91946V1.22863L668.375 22.7651C667.034 23.4452 665.449 23.4444 664.109 22.7635L621.633 1.1891V-6.91979C621.633 -8.70191 622.637 -10.3315 624.23 -11.1319L664.124 -31.1846C665.457 -31.8542 667.026 -31.8542 668.358 -31.1846L708.253 -11.1319C709.845 -10.3315 710.851 -8.70142 710.851 -6.91946Z" fill="#072213" stroke="#26BD6C" stroke-linecap="round" stroke-linejoin="round"/>
<path d="M789.847 114.317V153.969C789.847 155.724 788.874 157.333 787.319 158.146L750.653 177.331C749.297 178.041 747.682 178.048 746.32 177.349L735.32 171.719V128.249C735.32 126.468 736.323 124.84 737.913 124.039L776.48 104.609L787.276 110.117C788.854 110.923 789.847 112.545 789.847 114.317Z" fill="#072213" stroke="#26BD6C" stroke-linecap="round" stroke-linejoin="round"/>
<path d="M597.152 128.273V171.732L586.152 177.364C584.79 178.061 583.175 178.054 581.819 177.344L545.154 158.16C543.6 157.347 542.625 155.738 542.625 153.984V114.331C542.625 112.559 543.618 110.937 545.196 110.132L555.835 104.702L594.545 124.057C596.142 124.855 597.152 126.488 597.152 128.273Z" fill="#072213" stroke="#26BD6C" stroke-linecap="round" stroke-linejoin="round"/>
<path d="M789.109 111.806L748.479 132.099V177.881" fill="#072213"/>
<path d="M789.109 111.806L748.479 132.099V177.881" stroke="#26BD6C" stroke-opacity="0.3" stroke-miterlimit="10" stroke-linejoin="round"/>
<path d="M622.359 -9.44964L666.221 12.8104L710.109 -9.46216" fill="#072213"/>
<path d="M622.359 -9.44964L666.221 12.8104L710.109 -9.46216" stroke="#26BD6C" stroke-opacity="0.3" stroke-miterlimit="10" stroke-linejoin="round"/>
<path d="M666.236 12.8137V23.2781V12.8137Z" fill="#072213"/>
<path d="M666.236 12.8137V23.2781" stroke="#26BD6C" stroke-opacity="0.3" stroke-miterlimit="10" stroke-linejoin="round"/>
<path d="M736.053 125.752L748.481 132.099L736.053 125.752Z" fill="#072213"/>
<path d="M736.053 125.752L748.481 132.099" stroke="#26BD6C" stroke-opacity="0.3" stroke-miterlimit="10" stroke-linejoin="round"/>
<path d="M543.396 111.831L583.975 132.099V177.723" fill="#072213"/>
<path d="M543.396 111.831L583.975 132.099V177.723" stroke="#26BD6C" stroke-opacity="0.3" stroke-miterlimit="10" stroke-linejoin="round"/>
<path d="M596.403 125.744L583.966 132.096L596.403 125.744Z" fill="#072213"/>
<path d="M596.403 125.744L583.966 132.096" stroke="#26BD6C" stroke-opacity="0.3" stroke-miterlimit="10" stroke-linejoin="round"/>
<path d="M763.501 45.8426V81.8015C763.501 83.5812 762.499 85.2091 760.91 86.0103L750.134 91.4458L711.568 110.876C709.978 111.677 708.975 113.306 708.975 115.086V168.505C708.975 170.288 707.97 171.917 706.378 172.717L668.36 191.833C667.031 192.502 665.464 192.502 664.134 191.833L626.116 172.719C624.524 171.918 623.52 170.289 623.52 168.507V115.096C623.52 113.31 622.511 111.678 620.914 110.88L582.203 91.5245L571.829 86.3212C570.235 85.5216 569.229 83.8909 569.229 82.1076V45.7233C569.229 43.9527 570.221 42.3314 571.798 41.5254L608.212 22.9188C609.554 22.2328 611.144 22.2305 612.489 22.9122L621.638 27.5503L664.114 49.1248C665.455 49.8056 667.04 49.8061 668.381 49.1263L710.856 27.5898L720.008 22.9506C721.351 22.2697 722.939 22.2716 724.281 22.9557L760.928 41.6443C762.506 42.4495 763.501 44.0703 763.501 45.8426Z" fill="#0F4C2C" stroke="#26BD6C" stroke-linecap="round" stroke-linejoin="round"/>
<g opacity="0.6">
<path d="M666.364 192.143V92.3269" stroke="#26BD6C" stroke-opacity="0.3" stroke-linecap="round" stroke-linejoin="round"/>
<path d="M762.771 43.3326L666.235 92.3248L570.015 43.2468" stroke="#26BD6C" stroke-opacity="0.3" stroke-linecap="round" stroke-linejoin="round"/>
</g>
<path d="M-35.0825 22.8335L-35.0825 2.11104C-35.0825 1.08547 -34.5054 0.147314 -33.5893 -0.314405L-27.3793 -3.44676L-5.15442 -14.644C-4.23819 -15.1055 -3.66009 -16.0442 -3.66009 -17.0702L-3.66009 -47.8548C-3.6601 -48.8819 -3.08115 -49.8207 -2.16378 -50.2821L19.7453 -61.2982C20.5113 -61.6836 21.4144 -61.6836 22.1807 -61.2982L44.0897 -50.283C45.0071 -49.8217 45.5861 -48.8829 45.5861 -47.8558L45.5861 -17.0759C45.5861 -16.0469 46.1675 -15.1063 47.0878 -14.6461L69.3958 -3.49214L75.3744 -0.493534C76.2932 -0.0327644 76.873 0.906998 76.873 1.93466L76.873 22.9022C76.873 23.9226 76.3013 24.857 75.3925 25.3214L54.4074 36.0441C53.634 36.4394 52.7179 36.4407 51.9431 36.0479L46.6704 33.375L22.1922 20.942C21.4196 20.5497 20.5063 20.5494 19.7335 20.9412L-4.74423 33.3522L-10.0182 36.0257C-10.7924 36.4182 -11.7075 36.417 -12.4806 36.0228L-33.5998 25.2529C-34.5092 24.7889 -35.0825 23.8548 -35.0825 22.8335Z" fill="#0F4C2C" stroke="#26BD6C" stroke-linecap="round" stroke-linejoin="round"/>
<g opacity="0.6">
<path d="M-34.662 24.2799L20.9702 -3.9534L76.4199 24.3293" stroke="#26BD6C" stroke-opacity="0.3" stroke-linecap="round" stroke-linejoin="round"/>
</g>
<path d="M1179.88 -29.7195V-21.5714L1137.4 -0.0349541C1136.06 0.64518 1134.47 0.644356 1133.13 -0.0365982L1090.66 -21.611V-29.7198C1090.66 -31.502 1091.66 -33.1315 1093.26 -33.9319L1133.15 -53.9847C1134.48 -54.6542 1136.05 -54.6542 1137.38 -53.9847L1177.28 -33.9319C1178.87 -33.1315 1179.88 -31.5015 1179.88 -29.7195Z" fill="#072213" stroke="#26BD6C" stroke-linecap="round" stroke-linejoin="round"/>
<path d="M1135.26 -9.98633V0.478077V-9.98633Z" fill="#072213"/>
<path d="M1135.26 -9.98633V0.478077" stroke="#26BD6C" stroke-opacity="0.3" stroke-miterlimit="10" stroke-linejoin="round"/>
<path d="M546.379 300.646L580.543 280.516C582.054 279.626 583.935 279.648 585.425 280.575L620.567 302.426C621.867 303.233 622.693 304.622 622.783 306.15L623.516 318.485L586.063 340.552C584.529 341.456 582.617 341.418 581.119 340.455L544.801 317.091L544.067 304.993C543.959 303.225 544.853 301.545 546.379 300.646Z" fill="#072213" stroke="#26BD6C" stroke-linecap="round" stroke-linejoin="round"/>
<path d="M544.591 302.557L582.701 327.261L622.146 304.02" fill="#072213"/>
<path d="M544.591 302.557L582.701 327.261L622.146 304.02" stroke="#26BD6C" stroke-opacity="0.3" stroke-miterlimit="10" stroke-linejoin="round"/>
<path d="M583.54 341.188L582.7 327.258L583.54 341.188Z" fill="#072213"/>
<path d="M583.54 341.188L582.7 327.258" stroke="#26BD6C" stroke-opacity="0.3" stroke-miterlimit="10" stroke-linejoin="round"/>
<path d="M197.219 26.3503V69.8093L208.219 75.4412C209.581 76.1379 211.196 76.1313 212.552 75.4214L249.217 56.2376C250.772 55.4241 251.746 53.8149 251.746 52.0608V12.4078C251.746 10.6363 250.753 9.01424 249.175 8.20908L238.536 2.77905L199.826 22.1339C198.229 22.9325 197.219 24.5647 197.219 26.3503Z" fill="#072213" stroke="#26BD6C" stroke-linecap="round" stroke-linejoin="round"/>
<path d="M250.976 9.9082L210.396 30.1761V75.8001" fill="#072213"/>
<path d="M250.976 9.9082L210.396 30.1761V75.8001" stroke="#26BD6C" stroke-opacity="0.3" stroke-miterlimit="10" stroke-linejoin="round"/>
<path d="M197.968 23.8213L210.405 30.1729L197.968 23.8213Z" fill="#072213"/>
<path d="M197.968 23.8213L210.405 30.1729" stroke="#26BD6C" stroke-opacity="0.3" stroke-miterlimit="10" stroke-linejoin="round"/>
<path d="M877.58 40.749C873.174 39.9176 870.223 34.884 872.6 30.3336L924.119 -67.4919C925.928 -70.944 929.84 -71.7011 932.738 -70.2625L956.98 -61.8723C958.529 -61.3234 959.907 -60.3784 960.977 -59.1314C962.047 -57.8844 962.771 -56.3789 963.078 -54.7647L966.331 -37.7177L970.367 -16.5252C970.639 -15.1166 971.448 -13.8687 972.622 -13.0438L999.654 5.80062C1005.2 10.3274 1003.52 19.2043 996.722 21.4222L906.533 45.2119C903.799 45.9307 900.933 45.9869 898.173 45.3757L877.58 40.749Z" fill="#072213" stroke="#26BD6C" stroke-miterlimit="10" stroke-linejoin="round"/>
<path d="M944.689 -19.2118L965.997 -1.7585C971.541 2.76643 969.867 11.6433 963.066 13.8612L881.15 40.5166C875.025 42.5145 869.594 36.0437 872.599 30.3333L924.119 -67.4941C927.016 -73.0056 935.263 -71.6192 936.219 -65.4528L942.743 -22.6386C942.95 -21.2845 943.65 -20.0548 944.709 -19.1851L944.689 -19.2118Z" fill="#072213" stroke="#26BD6C" stroke-opacity="0.3" stroke-miterlimit="10" stroke-linejoin="round"/>
<path d="M971.593 -13.996L943.076 -21.3748L971.593 -13.996ZM999.635 5.77078L961.314 -5.48955L999.635 5.77078ZM996.702 21.3921L958.763 15.406L996.702 21.3921Z" fill="#266DF0"/>
<path d="M971.593 -13.996L943.076 -21.3748M999.635 5.77078L961.314 -5.48955M996.702 21.3921L958.763 15.406" stroke="#26BD6C" stroke-opacity="0.3" stroke-miterlimit="10" stroke-linejoin="round"/>
<path d="M177.507 309.098C184.665 309.059 190.744 302.003 188.32 294.175L135.533 125.766C133.684 119.825 127.759 117.512 122.796 118.939L82.3202 125.147C79.7306 125.564 77.2955 126.652 75.2571 128.303C73.2187 129.954 71.6482 132.109 70.7019 134.555L60.6969 160.388L48.2705 192.505C47.4375 194.639 45.8097 196.366 43.7293 197.324L-4.13097 219.146C-14.136 224.661 -14.0576 239.081 -4.01639 244.518L130.762 307.786C134.849 309.701 139.333 310.613 143.843 310.446L177.507 309.098Z" fill="#072213" stroke="#26BD6C" stroke-miterlimit="10" stroke-linejoin="round"/>
<path d="M89.3617 195.665L50.8884 216.948C40.8833 222.46 40.9617 236.879 51.0029 242.316L171.968 307.708C181.011 312.605 191.399 304.005 188.321 294.175L135.533 125.762C132.569 116.276 119.22 116.083 115.948 125.491L93.4023 190.844C92.6871 192.91 91.2343 194.64 89.3225 195.701L89.3617 195.665Z" fill="#0F4C2C" stroke="#26BD6C" stroke-miterlimit="10" stroke-linejoin="round"/>
<path d="M45.6173 196.125L92.5156 192.733L45.6173 196.125ZM-4.0943 219.106L59.3132 212.436L-4.0943 219.106ZM-3.97674 244.477L57.314 245.979L-3.97674 244.477Z" fill="#266DF0"/>
<path d="M45.6173 196.125L92.5156 192.733M-4.0943 219.106L59.3132 212.436M-3.97674 244.477L57.314 245.979" stroke="#26BD6C" stroke-opacity="0.3" stroke-miterlimit="10" stroke-linejoin="round"/>
<path d="M1150.25 157.911C1143.37 155.629 1135.94 157.524 1129.74 161.261C1129.42 161.449 1129.11 161.633 1128.8 161.815C1115.26 169.631 1099.96 171.183 1086.69 167.312C1076.24 164.263 1069.98 153.427 1072.57 142.851C1075.85 129.423 1084.84 116.95 1098.38 109.134C1098.7 108.952 1099.01 108.773 1099.33 108.598C1105.67 105.096 1111.03 99.6018 1112.49 92.5094C1112.7 91.4862 1113.61 90.7579 1114.65 90.7754L1135.4 91.1245C1136.6 91.1448 1137.56 92.1335 1137.54 93.3333C1137.53 93.5106 1137.51 93.6875 1137.46 93.859L1133.88 107.239C1133.58 108.352 1133.74 109.539 1134.31 110.537L1145.55 129.997C1146.12 130.995 1147.07 131.723 1148.19 132.021L1161.57 135.607C1162.73 135.917 1163.41 137.108 1163.1 138.267C1163.06 138.439 1162.99 138.604 1162.9 138.76L1152.83 156.903C1152.32 157.817 1151.24 158.24 1150.25 157.911ZM1113.59 135.475C1111.19 131.318 1105.87 129.894 1101.72 132.294C1097.56 134.694 1096.14 140.008 1098.54 144.165C1100.94 148.321 1106.25 149.745 1110.41 147.346C1114.56 144.946 1115.99 139.631 1113.59 135.475Z" fill="#072213"/>
<path d="M1150.25 157.911C1143.37 155.629 1135.94 157.524 1129.74 161.261C1129.42 161.449 1129.11 161.633 1128.8 161.815C1115.26 169.631 1099.96 171.183 1086.69 167.312C1076.24 164.263 1069.98 153.427 1072.57 142.851C1075.85 129.423 1084.84 116.95 1098.38 109.134C1098.7 108.952 1099.01 108.773 1099.33 108.598C1105.67 105.096 1111.03 99.6018 1112.49 92.5094C1112.7 91.4862 1113.61 90.7579 1114.65 90.7754L1135.4 91.1245C1136.6 91.1448 1137.56 92.1335 1137.54 93.3333C1137.53 93.5106 1137.51 93.6875 1137.46 93.859L1133.88 107.239C1133.58 108.352 1133.74 109.539 1134.31 110.537L1145.55 129.997C1146.12 130.995 1147.07 131.723 1148.19 132.021L1161.57 135.607C1162.73 135.917 1163.41 137.108 1163.1 138.267C1163.06 138.439 1162.99 138.604 1162.9 138.76L1152.83 156.903C1152.32 157.817 1151.24 158.24 1150.25 157.911ZM1113.59 135.475C1111.19 131.318 1105.87 129.894 1101.72 132.294C1097.56 134.694 1096.14 140.008 1098.54 144.165C1100.94 148.321 1106.25 149.745 1110.41 147.346C1114.56 144.946 1115.99 139.631 1113.59 135.475Z" fill="#0F4C2C"/>
<path d="M1112.49 92.5126C1110.6 98.6565 1108.13 101.747 1102.82 106.525C1121.71 98.9423 1132.02 100.171 1135.49 101.077L1137.46 93.8623C1137.51 93.6908 1137.54 93.5139 1137.54 93.3365C1137.56 92.1367 1136.6 91.148 1135.4 91.1277L1114.65 90.7786C1113.61 90.7611 1112.7 91.4895 1112.49 92.5126Z" fill="#072213"/>
<path d="M1150.25 157.911C1143.98 156.477 1140.07 157.069 1133.28 159.28C1149.29 146.71 1153.38 137.172 1154.33 133.711L1161.57 135.607C1161.74 135.653 1161.9 135.719 1162.06 135.806C1163.11 136.388 1163.48 137.71 1162.9 138.76L1152.83 156.903C1152.32 157.817 1151.24 158.24 1150.25 157.911Z" fill="#072213"/>
<path d="M1098.1 144.415C1095.57 140.02 1097.07 134.399 1101.47 131.861C1105.86 129.323 1111.48 130.829 1114.02 135.225C1116.56 139.62 1115.05 145.24 1110.66 147.778C1106.26 150.316 1100.64 148.81 1098.1 144.415Z" stroke="#26BD6C"/>
<path d="M1083.03 166.166C1084.4 160.881 1083.99 149.469 1071.45 146.104" stroke="#26BD6C"/>
<path d="M1129.03 116.867L1130.83 109.834C1132.35 103.936 1138.04 100.107 1144.07 100.926L1152.47 102.067C1160.25 103.124 1164.94 111.241 1161.96 118.505L1158.75 126.35C1156.44 131.986 1150.28 134.999 1144.42 133.361L1137.42 131.408C1131.13 129.652 1127.4 123.191 1129.03 116.867Z" fill="#072213" stroke="#26BD6C"/>
<path d="M1135.27 100.94L1137.33 102.227C1147.48 108.569 1153.82 119.544 1154.23 131.508L1154.32 133.936" stroke="#26BD6C" stroke-opacity="0.3"/>
<path d="M1129.89 161.127C1136.56 157.041 1150.72 146.125 1154.27 133.904" stroke="#26BD6C"/>
<path d="M1099.49 108.468C1106.37 104.733 1122.79 97.9664 1135.15 101.01" stroke="#26BD6C"/>
</g>
</g>
<defs>
<radialGradient id="paint0_radial_2212_1183" cx="0" cy="0" r="1" gradientUnits="userSpaceOnUse" gradientTransform="translate(576 311.64) rotate(-90) scale(556.792 1612.04)">
<stop stop-color="#D9D9D9" stop-opacity="0"/>
<stop offset="1" stop-color="#737373"/>
</radialGradient>
</defs>
</svg>
