<svg width="1200" height="630" viewBox="0 0 1200 630" fill="none" xmlns="http://www.w3.org/2000/svg">
<g clip-path="url(#clip0_2243_1182)">
<rect width="1200" height="630" fill="#0B0C0E"/>
<g opacity="0.8">
<mask id="mask0_2243_1182" style="mask-type:alpha" maskUnits="userSpaceOnUse" x="-43" y="-68" width="1315" height="824">
<rect width="1313.73" height="822.683" transform="matrix(-1 0 0 1 1271.22 -67.4707)" fill="url(#paint0_radial_2243_1182)"/>
</mask>
<g mask="url(#mask0_2243_1182)">
<path d="M1132.48 302.56C1134.95 288.151 1145.32 276.63 1158.15 269.625C1160.54 268.319 1162.91 266.935 1165.26 265.473C1206.46 239.814 1229.46 196.716 1229.24 154.244C1229.19 143.357 1223 133.428 1213.26 128.575C1175.24 109.645 1126.41 111.285 1085.21 136.944C1082.86 138.406 1080.58 139.924 1078.35 141.496C1066.4 149.922 1051.49 154.145 1037.47 150.006L1032.17 148.441C1029.68 147.705 1027.01 148.849 1025.83 151.163L1002.28 197.139C1000.92 199.797 1001.97 203.056 1004.63 204.417C1005.02 204.619 1005.44 204.771 1005.87 204.871L1039.45 212.678C1042.25 213.327 1044.67 215.06 1046.19 217.494L1075.76 264.973C1077.27 267.408 1077.76 270.345 1077.11 273.139L1069.3 306.725C1068.63 309.634 1070.44 312.541 1073.35 313.217C1073.78 313.317 1074.22 313.364 1074.66 313.356L1126.31 312.499C1128.91 312.455 1131.11 310.567 1131.55 308.004L1132.48 302.56ZM1125.24 201.209C1118.92 191.068 1122.02 177.727 1132.16 171.411C1142.3 165.096 1155.64 168.196 1161.96 178.337C1168.27 188.477 1165.17 201.818 1155.03 208.134C1144.89 214.45 1131.55 211.349 1125.24 201.209Z" fill="#072213"/>
<path d="M1132.48 302.56C1134.95 288.151 1145.32 276.63 1158.15 269.625C1160.54 268.319 1162.91 266.935 1165.26 265.473C1206.46 239.814 1229.46 196.716 1229.24 154.244C1229.19 143.357 1223 133.428 1213.26 128.575C1175.24 109.645 1126.41 111.285 1085.21 136.944C1082.86 138.406 1080.58 139.924 1078.35 141.496C1066.4 149.922 1051.49 154.145 1037.47 150.006L1032.17 148.441C1029.68 147.705 1027.01 148.849 1025.83 151.163L1002.28 197.139C1000.92 199.797 1001.97 203.056 1004.63 204.417C1005.02 204.619 1005.44 204.771 1005.87 204.871L1039.45 212.678C1042.25 213.327 1044.67 215.06 1046.19 217.494L1075.76 264.973C1077.27 267.408 1077.76 270.345 1077.11 273.139L1069.3 306.725C1068.63 309.634 1070.44 312.541 1073.35 313.217C1073.78 313.317 1074.22 313.364 1074.66 313.356L1126.31 312.499C1128.91 312.455 1131.11 310.567 1131.55 308.004L1132.48 302.56ZM1125.24 201.209C1118.92 191.068 1122.02 177.727 1132.16 171.411C1142.3 165.096 1155.64 168.196 1161.96 178.337C1168.27 188.477 1165.17 201.818 1155.03 208.134C1144.89 214.45 1131.55 211.349 1125.24 201.209Z" fill="#0F4C2C"/>
<path d="M1032.18 148.448C1047.89 151.495 1057.56 149.695 1074.28 143.63C1035.49 176.234 1026.11 200.304 1024.03 208.992L1005.87 204.878C1005.44 204.778 1005.02 204.626 1004.63 204.424C1001.97 203.063 1000.92 199.804 1002.28 197.146L1025.83 151.17C1027.02 148.856 1029.68 147.712 1032.18 148.448Z" fill="#072213"/>
<path d="M1131.55 308.005C1135.74 292.563 1141.63 284.669 1154.44 272.34C1108.07 292.777 1082.34 290.577 1073.62 288.612L1069.3 306.725C1069.2 307.156 1069.16 307.598 1069.16 308.039C1069.21 311.026 1071.67 313.406 1074.66 313.357L1126.31 312.499C1128.91 312.456 1131.11 310.568 1131.55 308.005Z" fill="#072213"/>
<path d="M1162.38 178.073C1155.92 167.697 1142.27 164.525 1131.9 170.986C1121.52 177.448 1118.35 191.098 1124.81 201.473C1131.27 211.847 1144.92 215.021 1155.3 208.559C1165.67 202.097 1168.84 188.447 1162.38 178.073Z" stroke="#26BD6C"/>
<path d="M1228.44 170.072C1215.24 166.876 1190.65 152.612 1197.96 121.127" stroke="#26BD6C"/>
<path d="M1083.28 217.449L1033.27 205.267C1027.35 203.826 1021.29 207.044 1019.18 212.753L998.276 269.101C995.546 276.461 1000.5 284.417 1008.31 285.212L1068.1 291.306C1074.16 291.923 1079.72 287.906 1081.03 281.961L1092.16 231.701C1093.57 225.327 1089.62 218.995 1083.28 217.449Z" fill="#072213" stroke="#26BD6C"/>
<path d="M1023.99 208.349L1026.34 242.83C1027.16 254.774 1033.86 265.531 1044.22 271.53L1074.13 288.851" stroke="#26BD6C" stroke-opacity="0.3"/>
<path d="M1162.46 267.075C1145.67 276.94 1105.11 295.241 1074.12 288.698" stroke="#26BD6C"/>
<path d="M1082.45 138.602C1066.19 149.321 1032.08 177.466 1024.29 208.165" stroke="#26BD6C"/>
<path d="M1039.8 726.752V556.235C1039.8 553.896 1038.18 551.87 1035.89 551.357L876.203 515.422L868.525 518.297C866.572 519.028 865.278 520.894 865.278 522.98V683.123L1028.89 732.206L1039.8 726.752Z" fill="#072213"/>
<path d="M1039.8 726.752V556.235C1039.8 553.896 1038.18 551.87 1035.89 551.357L876.203 515.422L868.525 518.297C866.572 519.028 865.278 520.894 865.278 522.98V683.123L1028.89 732.206L1039.8 726.752Z" fill="#072213"/>
<path d="M1039.8 726.752V556.235C1039.8 553.896 1038.18 551.87 1035.89 551.357L876.203 515.422L868.525 518.297C866.572 519.028 865.278 520.894 865.278 522.98V683.123L1028.89 732.206L1039.8 726.752Z" stroke="#26BD6C" stroke-linecap="round" stroke-linejoin="round"/>
<path d="M1028.89 731.672V556.325M1028.89 556.325L866.711 520.314M1028.89 556.325L1037.91 553.888" stroke="#26BD6C" stroke-opacity="0.3" stroke-miterlimit="10" stroke-linejoin="round"/>
<path d="M1001.62 579.43V743.041L827.103 692.668V538.528L1001.62 579.43Z" fill="#072213"/>
<path d="M1001.62 579.43V743.041L827.103 692.668V538.528L1001.62 579.43Z" fill="#0F4C2C"/>
<path d="M1001.62 579.43V743.041L827.103 692.668V538.528L1001.62 579.43Z" stroke="#26BD6C" stroke-linecap="round" stroke-linejoin="round"/>
<circle cx="2.98647" cy="2.98647" r="2.98647" transform="matrix(-0.971399 -0.237453 -0.110432 0.993884 853.297 550.419)" fill="#26BD6C"/>
<circle cx="2.98647" cy="2.98647" r="2.98647" transform="matrix(-0.971399 -0.237453 -0.110432 0.993884 845.908 548.612)" fill="#26BD6C"/>
<circle cx="2.98647" cy="2.98647" r="2.98647" transform="matrix(-0.971399 -0.237453 -0.110432 0.993884 838.518 546.806)" fill="#26BD6C"/>
<path d="M778.972 136.44V-34.0774C778.972 -36.4159 780.593 -38.4421 782.874 -38.9555L942.565 -74.8896L950.242 -72.015C952.195 -71.2839 953.489 -69.4177 953.489 -67.3325V92.8108L789.879 141.894L778.972 136.44Z" fill="#072213"/>
<path d="M778.972 136.44V-34.0774C778.972 -36.4159 780.593 -38.4421 782.874 -38.9555L942.565 -74.8896L950.242 -72.015C952.195 -71.2839 953.489 -69.4177 953.489 -67.3325V92.8108L789.879 141.894L778.972 136.44Z" fill="#072213"/>
<path d="M778.972 136.44V-34.0774C778.972 -36.4159 780.593 -38.4421 782.874 -38.9555L942.565 -74.8896L950.242 -72.015C952.195 -71.2839 953.489 -69.4177 953.489 -67.3325V92.8108L789.879 141.894L778.972 136.44Z" stroke="#26BD6C" stroke-linecap="round" stroke-linejoin="round"/>
<path d="M789.879 141.36V-33.9871M789.879 -33.9871L952.056 -69.998M789.879 -33.9871L780.857 -36.4238" stroke="#26BD6C" stroke-opacity="0.3" stroke-miterlimit="10" stroke-linejoin="round"/>
<path d="M817.147 -10.8811V152.729L991.665 102.357V-51.7837L817.147 -10.8811Z" fill="#072213"/>
<path d="M817.147 -10.8811V152.729L991.665 102.357V-51.7837L817.147 -10.8811Z" fill="#0F4C2C"/>
<path d="M817.147 -10.8811V152.729L991.665 102.357V-51.7837L817.147 -10.8811Z" stroke="#26BD6C" stroke-linecap="round" stroke-linejoin="round"/>
<path d="M862.314 104.701L845.242 130.229L838.79 125.914L850.741 108.044L835.686 97.9763L840.808 90.318L862.314 104.701Z" fill="#072213"/>
<path d="M865.28 124.191L865.279 115.702L892.559 107.822L892.559 116.324L865.28 124.191Z" fill="#072213"/>
<path d="M769.266 262.088V270.385L812.516 292.315C813.882 293.007 815.495 293.006 816.86 292.313L860.111 270.345V262.088C860.111 260.273 859.088 258.614 857.467 257.799L816.844 237.38C815.488 236.699 813.889 236.699 812.533 237.38L771.91 257.799C770.289 258.614 769.266 260.274 769.266 262.088Z" fill="#072213" stroke="#26BD6C" stroke-linecap="round" stroke-linejoin="round"/>
<path d="M688.828 385.537V425.913C688.828 427.699 689.819 429.338 691.402 430.166L728.737 449.701C730.118 450.424 731.763 450.43 733.149 449.719L744.35 443.986V399.723C744.35 397.91 743.328 396.252 741.709 395.436L702.439 375.651L691.446 381.261C689.839 382.081 688.828 383.733 688.828 385.537Z" fill="#072213" stroke="#26BD6C" stroke-linecap="round" stroke-linejoin="round"/>
<path d="M885.039 399.748V444L896.239 449.734C897.626 450.444 899.271 450.437 900.652 449.714L937.986 430.181C939.568 429.352 940.561 427.714 940.561 425.928V385.551C940.561 383.747 939.549 382.096 937.943 381.276L927.109 375.747L887.693 395.455C886.067 396.268 885.039 397.93 885.039 399.748Z" fill="#072213" stroke="#26BD6C" stroke-linecap="round" stroke-linejoin="round"/>
<path d="M689.58 382.979L730.951 403.643V450.261" fill="#072213"/>
<path d="M689.58 382.979L730.951 403.643V450.261" stroke="#26BD6C" stroke-opacity="0.3" stroke-miterlimit="10" stroke-linejoin="round"/>
<path d="M859.372 259.512L814.709 282.178L770.021 259.499" fill="#072213"/>
<path d="M859.372 259.512L814.709 282.178L770.021 259.499" stroke="#26BD6C" stroke-opacity="0.3" stroke-miterlimit="10" stroke-linejoin="round"/>
<path d="M814.694 282.182V292.837V282.182Z" fill="#072213"/>
<path d="M814.694 282.182V292.837" stroke="#26BD6C" stroke-opacity="0.3" stroke-miterlimit="10" stroke-linejoin="round"/>
<path d="M743.604 397.181L730.949 403.644L743.604 397.181Z" fill="#072213"/>
<path d="M743.604 397.181L730.949 403.644" stroke="#26BD6C" stroke-opacity="0.3" stroke-miterlimit="10" stroke-linejoin="round"/>
<path d="M939.776 383.006L898.456 403.644V450.1" fill="#072213"/>
<path d="M939.776 383.006L898.456 403.644V450.1" stroke="#26BD6C" stroke-opacity="0.3" stroke-miterlimit="10" stroke-linejoin="round"/>
<path d="M885.802 397.172L898.465 403.64L885.802 397.172Z" fill="#072213"/>
<path d="M885.802 397.172L898.465 403.64" stroke="#26BD6C" stroke-opacity="0.3" stroke-miterlimit="10" stroke-linejoin="round"/>
<path d="M715.655 315.813V352.428C715.655 354.24 716.674 355.898 718.293 356.714L729.266 362.248L768.535 382.033C770.154 382.848 771.176 384.507 771.176 386.32V440.714C771.176 442.529 772.199 444.188 773.82 445.003L812.531 464.467C813.885 465.148 815.481 465.148 816.834 464.467L855.546 445.004C857.167 444.189 858.19 442.53 858.19 440.716V386.33C858.19 384.512 859.217 382.85 860.843 382.037L900.26 362.328L910.824 357.03C912.447 356.216 913.472 354.555 913.472 352.74V315.692C913.472 313.889 912.461 312.238 910.856 311.417L873.777 292.471C872.41 291.772 870.791 291.77 869.422 292.464L860.106 297.187L816.855 319.155C815.49 319.848 813.876 319.849 812.51 319.157L769.26 297.227L759.941 292.503C758.573 291.81 756.957 291.812 755.591 292.509L718.275 311.538C716.668 312.358 715.655 314.008 715.655 315.813Z" fill="#0F4C2C" stroke="#26BD6C" stroke-linecap="round" stroke-linejoin="round"/>
<g opacity="0.6">
<path d="M814.563 464.783V363.146" stroke="#26BD6C" stroke-opacity="0.3" stroke-linecap="round" stroke-linejoin="round"/>
<path d="M716.398 313.257L814.696 363.143L912.671 313.17" stroke="#26BD6C" stroke-opacity="0.3" stroke-linecap="round" stroke-linejoin="round"/>
</g>
<path d="M678.389 216.671C684.489 216.314 689.352 210.026 686.932 203.463L634.337 62.3073C632.494 57.3277 627.339 55.6239 623.173 57.0636L588.955 64.1827C586.767 64.655 584.74 65.6922 583.078 67.191C581.415 68.6899 580.173 70.5982 579.477 72.7259L572.116 95.1954L562.975 123.13C562.361 124.986 561.052 126.532 559.322 127.442L519.515 148.203C511.236 153.355 511.954 165.641 520.758 169.822L638.489 217.663C642.058 219.11 645.922 219.685 649.758 219.339L678.389 216.671Z" fill="#072213" stroke="#26BD6C" stroke-miterlimit="10" stroke-linejoin="round"/>
<path d="M598.14 123.968L566.31 143.845C558.031 148.994 558.749 161.281 567.552 165.462L673.606 215.735C681.535 219.501 690 211.702 686.932 203.463L634.338 62.3043C631.383 54.3526 619.997 54.7908 617.633 62.9571L601.367 119.676C600.85 121.47 599.69 123.01 598.109 124.001L598.14 123.968Z" fill="#072213" stroke="#26BD6C" stroke-opacity="0.3" stroke-miterlimit="10" stroke-linejoin="round"/>
<path d="M560.878 126.335L600.697 121.326L560.878 126.335ZM519.545 148.165L573.287 139.618L519.545 148.165ZM520.79 169.785L573.098 168.298L520.79 169.785Z" fill="#266DF0"/>
<path d="M560.878 126.335L600.697 121.326M519.545 148.165L573.287 139.618M520.79 169.785L573.098 168.298" stroke="#26BD6C" stroke-opacity="0.3" stroke-miterlimit="10" stroke-linejoin="round"/>
<path d="M1076.33 416.852C1071.89 408.168 1076.62 396.391 1087.6 394.416L1324.41 352.681C1332.76 351.192 1339.27 356.91 1340.66 363.808L1358.52 416.66C1359.64 420.054 1359.85 423.682 1359.13 427.182C1358.41 430.683 1356.79 433.934 1354.43 436.612L1329.45 464.911L1298.39 500.079C1296.33 502.424 1295.27 505.476 1295.41 508.593L1299.02 580.167C1298.62 595.727 1281.13 604.673 1268.26 595.936L1107.23 472.573C1102.35 468.83 1098.43 463.977 1095.81 458.417L1076.33 416.852Z" fill="#072213" stroke="#26BD6C" stroke-miterlimit="10" stroke-linejoin="round"/>
<path d="M1268.81 452.355L1267.19 512.236C1266.79 527.794 1249.3 536.74 1236.43 528.003L1081.49 422.68C1069.89 414.811 1073.78 396.854 1087.6 394.415L1324.42 352.678C1337.75 350.316 1346.35 366.342 1337.02 376.198L1272.11 444.444C1270.06 446.605 1268.87 449.447 1268.79 452.425L1268.81 452.355Z" fill="#0F4C2C" stroke="#26BD6C" stroke-miterlimit="10" stroke-linejoin="round"/>
<path d="M378.319 23.8039V102.254L398.174 112.42C400.633 113.678 403.549 113.666 405.997 112.384L472.183 77.7548C474.988 76.2862 476.748 73.3815 476.748 70.215V-1.36429C476.748 -4.56223 474.954 -7.4902 472.106 -8.94363L452.901 -18.7456L383.024 16.1927C380.141 17.6343 378.319 20.5807 378.319 23.8039Z" fill="#072213" stroke="#26BD6C" stroke-linecap="round" stroke-linejoin="round"/>
<path d="M475.356 -5.87598L402.105 30.7106V113.068" fill="#072213"/>
<path d="M475.356 -5.87598L402.105 30.7106V113.068" stroke="#26BD6C" stroke-opacity="0.3" stroke-miterlimit="10" stroke-linejoin="round"/>
<path d="M379.67 19.2383L402.121 30.7039L379.67 19.2383Z" fill="#072213"/>
<path d="M379.67 19.2383L402.121 30.7039" stroke="#26BD6C" stroke-opacity="0.3" stroke-miterlimit="10" stroke-linejoin="round"/>
</g>
</g>
</g>
<defs>
<radialGradient id="paint0_radial_2243_1182" cx="0" cy="0" r="1" gradientUnits="userSpaceOnUse" gradientTransform="translate(942.724 662.793) rotate(-143.234) scale(1132.18 2439.37)">
<stop stop-color="#D9D9D9" stop-opacity="0"/>
<stop offset="1" stop-color="#737373"/>
</radialGradient>
<clipPath id="clip0_2243_1182">
<rect width="1200" height="630" fill="white"/>
</clipPath>
</defs>
</svg>
