<svg width="129" height="32" viewBox="0 0 129 32" fill="none" xmlns="http://www.w3.org/2000/svg">
<circle cx="16" cy="16" r="16" fill="url(#paint0_linear_254_1102)"/>
<path fill-rule="evenodd" clip-rule="evenodd" d="M14.9875 11.1906C15.1125 10.3323 15.3896 9.23021 15.8187 7.88437L16 7.32812L16.1812 7.88437C16.6104 9.23021 16.8875 10.3323 17.0125 11.1906C17.1083 11.8198 17.1083 12.6198 17.0125 13.5906C16.9166 14.5656 16.9166 15.3719 17.0125 16.0094C17.1541 16.9427 17.5812 17.7177 18.2937 18.3344C19.0187 18.9635 19.8583 19.2781 20.8125 19.2781C21.8708 19.2781 22.775 18.9052 23.525 18.1594C24.2708 17.4135 24.6479 16.5135 24.6562 15.4594C24.6604 14.526 24.7562 13.4969 24.9437 12.3719C25.0354 11.8094 25.1291 11.3385 25.225 10.9594L25.35 10.4469L25.575 10.9219C26.2208 12.2885 26.5583 13.7302 26.5875 15.2469V15.4594C26.5875 16.8969 26.3104 18.2698 25.7562 19.5781C25.2187 20.849 24.4625 21.9719 23.4875 22.9469C22.5083 23.9219 21.3854 24.6781 20.1187 25.2156C18.8104 25.7698 17.4375 26.0469 16 26.0469C14.5625 26.0469 13.1896 25.7698 11.8812 25.2156C10.6146 24.6781 9.49164 23.9219 8.51248 22.9469C7.53748 21.9719 6.78123 20.849 6.24373 19.5781C5.68956 18.2698 5.41248 16.8969 5.41248 15.4594V15.2469C5.44164 13.7302 5.77914 12.2885 6.42498 10.9219L6.64998 10.4469L6.77498 10.9594C6.87081 11.3385 6.96456 11.8094 7.05623 12.3719C7.24373 13.4969 7.33956 14.526 7.34373 15.4594C7.35206 16.5135 7.72914 17.4135 8.47498 18.1594C9.22498 18.9052 10.1291 19.2781 11.1875 19.2781C12.1416 19.2781 12.9812 18.9635 13.7062 18.3344C14.4187 17.7177 14.8458 16.9427 14.9875 16.0094C15.0833 15.3719 15.0833 14.5656 14.9875 13.5906C14.8916 12.6198 14.8916 11.8198 14.9875 11.1906ZM16 24.1156C17.4625 24.1156 18.8333 23.7698 20.1125 23.0781C21.019 22.5903 21.8062 21.9688 22.4742 21.2138C22.5575 21.1196 22.4593 20.9762 22.3379 21.0091C21.8458 21.1426 21.3373 21.2094 20.8125 21.2094C19.7708 21.2094 18.8021 20.9469 17.9062 20.4219C17.1824 20 16.5826 19.4522 16.1069 18.7785C16.0551 18.7052 15.9449 18.7052 15.8931 18.7785C15.4174 19.4522 14.8176 20 14.0937 20.4219C13.1979 20.9469 12.2291 21.2094 11.1875 21.2094C10.6626 21.2094 10.1542 21.1426 9.66207 21.0091C9.54066 20.9762 9.44244 21.1196 9.52578 21.2138C10.1937 21.9688 10.981 22.5903 11.8875 23.0781C13.1666 23.7698 14.5375 24.1156 16 24.1156Z" fill="white"/>
<path d="M40.456 24.232V12.4H42.928V24.232H40.456ZM41.704 10.792C41.224 10.792 40.816 10.64 40.48 10.336C40.16 10.016 40 9.60801 40 9.11201C40 8.61601 40.16 8.21601 40.48 7.91201C40.816 7.59201 41.224 7.43201 41.704 7.43201C42.2 7.43201 42.608 7.59201 42.928 7.91201C43.248 8.21601 43.408 8.61601 43.408 9.11201C43.408 9.60801 43.248 10.016 42.928 10.336C42.608 10.64 42.2 10.792 41.704 10.792Z" fill="#FAFAFA"/>
<path d="M46.5966 24.232V12.4H49.0206V14.176H49.4046C49.6286 13.696 50.0286 13.248 50.6046 12.832C51.1806 12.416 52.0366 12.208 53.1726 12.208C54.0686 12.208 54.8606 12.408 55.5486 12.808C56.2526 13.208 56.8046 13.776 57.2046 14.512C57.6046 15.232 57.8046 16.104 57.8046 17.128V24.232H55.3326V17.32C55.3326 16.296 55.0766 15.544 54.5646 15.064C54.0526 14.568 53.3486 14.32 52.4526 14.32C51.4286 14.32 50.6046 14.656 49.9806 15.328C49.3726 16 49.0686 16.976 49.0686 18.256V24.232H46.5966Z" fill="#FAFAFA"/>
<path d="M63.1701 24.232V14.488H59.8581V12.4H63.1701V9.80801C63.1701 9.08801 63.3861 8.51201 63.8181 8.08001C64.2501 7.64801 64.8261 7.43201 65.5461 7.43201H68.5941V9.52001H66.3381C65.8741 9.52001 65.6421 9.76001 65.6421 10.24V12.4H69.0501V14.488H65.6421V24.232H63.1701Z" fill="#FAFAFA"/>
<path d="M76.5128 24.568C75.3128 24.568 74.2648 24.32 73.3688 23.824C72.4728 23.312 71.7688 22.6 71.2568 21.688C70.7608 20.76 70.5128 19.688 70.5128 18.472V18.184C70.5128 16.952 70.7608 15.88 71.2568 14.968C71.7528 14.04 72.4408 13.328 73.3208 12.832C74.2168 12.32 75.2488 12.064 76.4168 12.064C77.5528 12.064 78.5448 12.32 79.3928 12.832C80.2568 13.328 80.9288 14.024 81.4088 14.92C81.8888 15.816 82.1288 16.864 82.1288 18.064V19H73.0328C73.0648 20.04 73.4088 20.872 74.0648 21.496C74.7368 22.104 75.5688 22.408 76.5608 22.408C77.4888 22.408 78.1848 22.2 78.6488 21.784C79.1288 21.368 79.4968 20.888 79.7528 20.344L81.7928 21.4C81.5688 21.848 81.2408 22.32 80.8088 22.816C80.3928 23.312 79.8408 23.728 79.1528 24.064C78.4648 24.4 77.5848 24.568 76.5128 24.568ZM73.0568 17.104H79.6088C79.5448 16.208 79.2248 15.512 78.6488 15.016C78.0728 14.504 77.3208 14.248 76.3928 14.248C75.4648 14.248 74.7048 14.504 74.1128 15.016C73.5368 15.512 73.1848 16.208 73.0568 17.104Z" fill="#FAFAFA"/>
<path d="M85.1044 24.232V12.4H87.5284V13.792H87.9124C88.1044 13.296 88.4084 12.936 88.8244 12.712C89.2564 12.472 89.7844 12.352 90.4084 12.352H91.8244V14.584H90.3124C89.5124 14.584 88.8564 14.808 88.3444 15.256C87.8324 15.688 87.5764 16.36 87.5764 17.272V24.232H85.1044Z" fill="#FAFAFA"/>
<path d="M94.3137 24.232V7.43201H104.898V9.78401H96.9057V14.608H104.226V16.96H96.9057V21.88H105.018V24.232H94.3137Z" fill="#FAFAFA"/>
<path d="M107.792 24.232V12.4H110.216V13.792H110.6C110.792 13.296 111.096 12.936 111.512 12.712C111.944 12.472 112.472 12.352 113.096 12.352H114.512V14.584H113C112.2 14.584 111.544 14.808 111.032 15.256C110.52 15.688 110.264 16.36 110.264 17.272V24.232H107.792Z" fill="#FAFAFA"/>
<path d="M120.417 24.568C119.569 24.568 118.809 24.424 118.137 24.136C117.481 23.848 116.953 23.424 116.553 22.864C116.169 22.304 115.977 21.624 115.977 20.824C115.977 20.008 116.169 19.336 116.553 18.808C116.953 18.264 117.489 17.856 118.161 17.584C118.849 17.312 119.625 17.176 120.489 17.176H124.089V16.408C124.089 15.72 123.881 15.168 123.465 14.752C123.049 14.336 122.409 14.128 121.545 14.128C120.697 14.128 120.049 14.328 119.601 14.728C119.153 15.128 118.857 15.648 118.713 16.288L116.409 15.544C116.601 14.904 116.905 14.328 117.321 13.816C117.753 13.288 118.321 12.864 119.025 12.544C119.729 12.224 120.577 12.064 121.569 12.064C123.105 12.064 124.313 12.456 125.193 13.24C126.073 14.024 126.513 15.136 126.513 16.576V21.448C126.513 21.928 126.737 22.168 127.185 22.168H128.193V24.232H126.345C125.785 24.232 125.329 24.088 124.977 23.8C124.625 23.512 124.449 23.12 124.449 22.624V22.552H124.089C123.961 22.792 123.769 23.072 123.513 23.392C123.257 23.712 122.881 23.992 122.385 24.232C121.889 24.456 121.233 24.568 120.417 24.568ZM120.777 22.528C121.769 22.528 122.569 22.248 123.177 21.688C123.785 21.112 124.089 20.328 124.089 19.336V19.096H120.633C119.977 19.096 119.449 19.24 119.049 19.528C118.649 19.8 118.449 20.208 118.449 20.752C118.449 21.296 118.657 21.728 119.073 22.048C119.489 22.368 120.057 22.528 120.777 22.528Z" fill="#FAFAFA"/>
<defs>
<linearGradient id="paint0_linear_254_1102" x1="16" y1="0" x2="16" y2="32" gradientUnits="userSpaceOnUse">
<stop stop-color="#2563EB"/>
<stop offset="1" stop-color="#0049DF"/>
</linearGradient>
</defs>
</svg>
