<svg width="141" height="32" viewBox="0 0 141 32" fill="none" xmlns="http://www.w3.org/2000/svg">
<circle cx="16" cy="16" r="16" fill="url(#paint0_linear_422_2116)"/>
<path fill-rule="evenodd" clip-rule="evenodd" d="M14.9876 11.1906C15.1126 10.3323 15.3897 9.23021 15.8188 7.88437L16.0001 7.32812L16.1813 7.88437C16.6105 9.23021 16.8876 10.3323 17.0126 11.1906C17.1084 11.8198 17.1084 12.6198 17.0126 13.5906C16.9168 14.5656 16.9168 15.3719 17.0126 16.0094C17.1543 16.9427 17.5813 17.7177 18.2938 18.3344C19.0188 18.9635 19.8584 19.2781 20.8126 19.2781C21.8709 19.2781 22.7751 18.9052 23.5251 18.1594C24.2709 17.4135 24.648 16.5135 24.6563 15.4594C24.6605 14.526 24.7563 13.4969 24.9438 12.3719C25.0355 11.8094 25.1293 11.3385 25.2251 10.9594L25.3501 10.4469L25.5751 10.9219C26.2209 12.2885 26.5584 13.7302 26.5876 15.2469V15.4594C26.5876 16.8969 26.3105 18.2698 25.7563 19.5781C25.2188 20.849 24.4626 21.9719 23.4876 22.9469C22.5084 23.9219 21.3855 24.6781 20.1188 25.2156C18.8105 25.7698 17.4376 26.0469 16.0001 26.0469C14.5626 26.0469 13.1897 25.7698 11.8813 25.2156C10.6147 24.6781 9.49176 23.9219 8.5126 22.9469C7.5376 21.9719 6.78135 20.849 6.24385 19.5781C5.68968 18.2698 5.4126 16.8969 5.4126 15.4594V15.2469C5.44176 13.7302 5.77926 12.2885 6.4251 10.9219L6.6501 10.4469L6.7751 10.9594C6.87093 11.3385 6.96468 11.8094 7.05635 12.3719C7.24385 13.4969 7.33968 14.526 7.34385 15.4594C7.35218 16.5135 7.72926 17.4135 8.4751 18.1594C9.2251 18.9052 10.1293 19.2781 11.1876 19.2781C12.1418 19.2781 12.9813 18.9635 13.7063 18.3344C14.4188 17.7177 14.8459 16.9427 14.9876 16.0094C15.0834 15.3719 15.0834 14.5656 14.9876 13.5906C14.8918 12.6198 14.8918 11.8198 14.9876 11.1906ZM16.0001 24.1156C17.4626 24.1156 18.8334 23.7698 20.1126 23.0781C21.0191 22.5903 21.8063 21.9688 22.4743 21.2138C22.5576 21.1196 22.4594 20.9762 22.338 21.0091C21.8459 21.1426 21.3374 21.2094 20.8126 21.2094C19.7709 21.2094 18.8022 20.9469 17.9063 20.4219C17.1825 20 16.5827 19.4522 16.107 18.7785C16.0552 18.7052 15.945 18.7052 15.8932 18.7785C15.4175 19.4522 14.8177 20 14.0938 20.4219C13.198 20.9469 12.2293 21.2094 11.1876 21.2094C10.6628 21.2094 10.1543 21.1426 9.66219 21.0091C9.54078 20.9762 9.44256 21.1196 9.52591 21.2138C10.1938 21.9688 10.9811 22.5903 11.8876 23.0781C13.1668 23.7698 14.5376 24.1156 16.0001 24.1156Z" fill="white"/>
<path d="M40 24.2319L44.8 7.43188H49.36L54.136 24.2319H51.472L50.368 20.2719H43.792L42.688 24.2319H40ZM44.44 17.8719H49.72L47.272 9.03989H46.888L44.44 17.8719Z" fill="white"/>
<path d="M55.5241 24.2319V12.3999H57.9961V24.2319H55.5241ZM56.7721 10.7919C56.2921 10.7919 55.8841 10.6399 55.5481 10.3359C55.2281 10.0159 55.0681 9.60788 55.0681 9.11188C55.0681 8.61589 55.2281 8.21589 55.5481 7.91189C55.8841 7.59189 56.2921 7.43188 56.7721 7.43188C57.2681 7.43188 57.6761 7.59189 57.9961 7.91189C58.3161 8.21589 58.4761 8.61589 58.4761 9.11188C58.4761 9.60788 58.3161 10.0159 57.9961 10.3359C57.6761 10.6399 57.2681 10.7919 56.7721 10.7919Z" fill="white"/>
<path d="M60.6327 24.2319V7.43188H63.2247V14.6319H70.2807V7.43188H72.8727V24.2319H70.2807V16.9839H63.2247V24.2319H60.6327Z" fill="white"/>
<path d="M80.0307 24.4479C79.1347 24.4479 78.3347 24.2479 77.6307 23.8479C76.9267 23.4479 76.3747 22.8799 75.9747 22.1439C75.5747 21.4079 75.3747 20.5279 75.3747 19.5039V12.3999H77.8467V19.3359C77.8467 20.3599 78.1027 21.1199 78.6147 21.6159C79.1267 22.0959 79.8387 22.3359 80.7507 22.3359C81.7587 22.3359 82.5667 21.9999 83.1747 21.3279C83.7987 20.6399 84.1107 19.6559 84.1107 18.3759V12.3999H86.5827V24.2319H84.1587V22.4559H83.7747C83.5507 22.9359 83.1507 23.3919 82.5747 23.8239C81.9987 24.2399 81.1507 24.4479 80.0307 24.4479Z" fill="white"/>
<path d="M96.1169 24.5679C94.9649 24.5679 94.0769 24.3599 93.4529 23.9439C92.8449 23.5279 92.3889 23.0639 92.0849 22.5519H91.7009V24.2319H89.2769V7.43188H91.7489V14.0079H92.1329C92.3249 13.6879 92.5809 13.3839 92.9009 13.0959C93.2209 12.7919 93.6449 12.5439 94.1729 12.3519C94.7009 12.1599 95.3489 12.0639 96.1169 12.0639C97.1089 12.0639 98.0209 12.3039 98.8529 12.7839C99.6849 13.2639 100.349 13.9599 100.845 14.8719C101.341 15.7839 101.589 16.8719 101.589 18.1359V18.4959C101.589 19.7759 101.333 20.8719 100.821 21.7839C100.325 22.6799 99.6609 23.3679 98.8289 23.8479C98.0129 24.3279 97.1089 24.5679 96.1169 24.5679ZM95.3969 22.4079C96.4689 22.4079 97.3489 22.0639 98.0369 21.3759C98.7409 20.6879 99.0929 19.7039 99.0929 18.4239V18.2079C99.0929 16.9439 98.7489 15.9679 98.0609 15.2799C97.3729 14.5919 96.4849 14.2479 95.3969 14.2479C94.3409 14.2479 93.4609 14.5919 92.7569 15.2799C92.0689 15.9679 91.7249 16.9439 91.7249 18.2079V18.4239C91.7249 19.7039 92.0689 20.6879 92.7569 21.3759C93.4609 22.0639 94.3409 22.4079 95.3969 22.4079Z" fill="white"/>
<path d="M103.62 24.2319V7.43188H108.492L112.164 22.5039H112.548L116.22 7.43188H121.092V24.2319H118.572V9.25589H118.188L114.54 24.2319H110.172L106.524 9.25589H106.14V24.2319H103.62Z" fill="white"/>
<path d="M123.708 24.2319V12.3999H126.18V24.2319H123.708ZM124.956 10.7919C124.476 10.7919 124.068 10.6399 123.732 10.3359C123.412 10.0159 123.252 9.60788 123.252 9.11188C123.252 8.61589 123.412 8.21589 123.732 7.91189C124.068 7.59189 124.476 7.43188 124.956 7.43188C125.452 7.43188 125.86 7.59189 126.18 7.91189C126.5 8.21589 126.66 8.61589 126.66 9.11188C126.66 9.60788 126.5 10.0159 126.18 10.3359C125.86 10.6399 125.452 10.7919 124.956 10.7919Z" fill="white"/>
<path d="M127.881 24.2319L132.393 18.2559L127.977 12.3999H130.881L133.977 16.6479H134.361L137.457 12.3999H140.385L135.945 18.2559L140.457 24.2319H137.505L134.361 19.8879H133.977L130.833 24.2319H127.881Z" fill="white"/>
<defs>
<linearGradient id="paint0_linear_422_2116" x1="16" y1="0" x2="16" y2="32" gradientUnits="userSpaceOnUse">
<stop stop-color="#2563EB"/>
<stop offset="1" stop-color="#0049DF"/>
</linearGradient>
</defs>
</svg>
