<svg width="1682" height="368" viewBox="0 0 1682 368" fill="none" xmlns="http://www.w3.org/2000/svg">
<path d="M1562.72 367.019H1506.2L1546.03 277.121L1466.37 98.0857H1523.27L1569.68 210.318C1571.31 214.241 1576.87 214.234 1578.48 210.306L1624.54 98.0857H1681.82L1562.72 367.019Z" fill="white"/>
<path d="M1391.05 287.742V143.603H1352.74V98.0852H1391.05V73.4299C1391.05 50.924 1397.87 33.2227 1411.53 20.326C1425.19 7.4294 1442.51 0.981079 1463.5 0.981079C1476.39 0.981079 1487.39 2.37189 1496.5 5.15351V51.0504C1490.43 48.7745 1483.35 47.6366 1475.25 47.6366C1463.88 47.6366 1455.66 50.1653 1450.6 55.2228C1445.54 60.0275 1443.01 68.2459 1443.01 79.8782V98.0852H1496.5V143.603H1443.01V287.742H1391.05Z" fill="white"/>
<path d="M1306.25 66.9815C1297.4 66.9815 1289.69 63.8206 1283.11 57.4987C1276.54 50.924 1273.25 43.0848 1273.25 33.9813C1273.25 24.8778 1276.54 17.1651 1283.11 10.8432C1289.69 4.26846 1297.4 0.981079 1306.25 0.981079C1315.61 0.981079 1323.44 4.26846 1329.77 10.8432C1336.34 17.1651 1339.63 24.8778 1339.63 33.9813C1339.63 43.0848 1336.34 50.924 1329.77 57.4987C1323.44 63.8206 1315.61 66.9815 1306.25 66.9815ZM1280.46 287.742V98.0852H1332.42V287.742H1280.46Z" fill="white"/>
<path d="M1189.97 287.742V3.2572H1241.94V287.742H1189.97Z" fill="white"/>
<path d="M1131.27 290.018C1110.03 290.018 1092.58 284.202 1078.92 272.569C1065.52 260.684 1058.82 243.615 1058.82 221.362V143.603H1020.51V98.0855H1058.82V45.361H1110.78V98.0855H1164.27V143.603H1110.78V211.121C1110.78 222.753 1113.31 231.098 1118.37 236.155C1123.43 240.96 1131.65 243.362 1143.03 243.362C1151.12 243.362 1158.2 242.224 1164.27 239.949V285.845C1155.16 288.627 1144.16 290.018 1131.27 290.018Z" fill="white"/>
<path d="M826.007 287.742V98.0852H877.973V111.948C877.973 114.292 881.163 115.328 882.715 113.572C894.3 100.466 910.8 93.9127 932.214 93.9127C954.973 93.9127 972.801 101.499 985.698 116.672C998.847 131.591 1005.42 151.568 1005.42 176.603V287.742H953.456V185.327C953.456 171.419 950.548 160.672 944.732 153.086C938.916 145.246 930.697 141.327 920.076 141.327C907.433 141.327 897.191 145.879 889.352 154.982C881.766 164.086 877.973 177.488 877.973 195.189V287.742H826.007Z" fill="white"/>
<path d="M761.314 66.9815C752.463 66.9815 744.75 63.8206 738.176 57.4987C731.601 50.924 728.313 43.0848 728.313 33.9813C728.313 24.8778 731.601 17.1651 738.176 10.8432C744.75 4.26846 752.463 0.981079 761.314 0.981079C770.67 0.981079 778.509 4.26846 784.831 10.8432C791.406 17.1651 794.693 24.8778 794.693 33.9813C794.693 43.0848 791.406 50.924 784.831 57.4987C778.509 63.8206 770.67 66.9815 761.314 66.9815ZM735.52 287.742V98.0852H787.486V287.742H735.52Z" fill="white"/>
<path d="M647.3 287.742V186.465C647.3 156.373 637.438 141.327 617.714 141.327C606.334 141.327 597.231 145.626 590.403 154.223C583.828 162.821 580.288 175.591 579.782 192.534V287.742H527.817V186.465C527.817 156.373 517.954 141.327 498.23 141.327C486.598 141.327 477.368 145.879 470.54 154.982C463.713 164.086 460.299 177.488 460.299 195.189V287.742H408.333V98.0852H460.299V112.084C460.299 114.416 463.434 115.443 464.966 113.685C476.447 100.503 491.707 93.9127 510.748 93.9127C535.769 93.9127 554.616 104.243 567.286 124.904C568.286 126.534 570.745 126.508 571.739 124.875C577.217 115.872 584.829 108.712 594.576 103.396C605.702 97.0737 616.955 93.9127 628.335 93.9127C650.84 93.9127 668.289 101.373 680.68 116.292C693.071 131.212 699.266 151.695 699.266 177.741V287.742H647.3Z" fill="white"/>
<path d="M331.596 125.814V23.0709C331.596 12.0456 322.652 3.25732 311.791 3.25732H209.096C192.965 3.25732 176.994 6.45294 162.141 12.5248C147.287 18.7565 133.712 27.7047 122.372 39.2093L121.574 40.0083C106.561 55.188 95.8599 74.0427 90.4297 94.815C100.172 92.2584 110.234 90.9801 120.296 90.8204C147.127 90.5008 173.48 99.1293 194.882 115.268C214.207 129.649 228.9 149.462 236.886 172.312C245.191 195.481 246.149 220.727 239.921 244.535C260.524 239.103 279.53 228.397 294.703 213.377L295.501 212.578C306.841 201.233 315.944 187.651 322.173 172.791C328.402 157.931 331.437 141.952 331.437 125.814H331.596Z" fill="#18E299"/>
<path d="M87.3642 124.079C87.5233 92.5605 100.093 62.3154 122.209 39.7112L36.7663 125.193C36.4481 125.512 36.1297 125.671 35.8115 125.989C14.9679 146.683 2.39839 174.381 0.329946 203.671C-1.57939 231.051 5.58047 258.112 20.8552 280.717C22.3121 282.873 26.2654 283.582 28.493 281.513L80.8405 229.3C97.2289 212.904 102.321 188.549 94.5242 166.74C89.5917 153.21 87.2051 138.724 87.3642 124.079Z" fill="#0C8C5E"/>
<path d="M295.003 212.587C278.615 228.664 258.089 239.807 235.813 244.742C213.379 249.677 190.149 248.244 168.51 240.603C168.51 240.603 168.35 240.603 168.191 240.603C146.393 232.803 122.049 237.897 105.661 254.134L53.3124 306.346C51.0848 308.575 51.403 312.236 54.1079 313.987C76.7017 329.11 103.751 336.432 131.118 334.522C160.395 332.453 187.921 319.877 208.764 299.024L209.56 298.228L295.003 212.746V212.587Z" fill="#0C8C5E"/>
</svg>
