<svg width="738" height="158" viewBox="0 0 738 158" fill="none" xmlns="http://www.w3.org/2000/svg">
<path d="M689.249 52.8031H692.288C698.619 52.8031 705.457 41.66 705.457 32.2897L720.779 32.1631C720.652 39.634 717.107 47.4848 710.396 51.157C708.243 52.5499 704.697 52.9298 702.165 53.4363V53.6895C704.697 53.183 708.116 52.8031 710.775 52.8031H734.834V66.8586H717.36V95.6027C717.36 101.048 720.272 102.314 724.324 102.314H738V116.496H723.311C706.344 116.496 702.165 109.025 702.165 93.3235V66.8586H689.249V52.8031Z" fill="white"/>
<path d="M651.808 117.256C632.055 117.382 615.213 106.746 615.213 84.8395C615.213 62.9332 632.055 52.2966 651.808 52.4232C671.562 52.5499 687.137 62.9332 687.137 84.8395C687.137 86.6123 687.01 86.7389 686.884 88.385H631.042C632.561 99.5281 641.172 105.48 652.188 105.353C661.938 105.226 669.029 102.82 672.195 93.9566L686.251 95.2228C681.565 112.064 668.016 117.129 651.808 117.256ZM652.188 63.693C641.805 63.5663 629.775 71.0373 631.042 88.385C632.941 81.5472 636.107 80.281 641.931 80.281H673.081C671.562 68.6314 663.078 63.8196 652.188 63.693Z" fill="white"/>
<path d="M564.525 116.496H549.204V27.8577H564.525L564.145 75.4691C564.145 78.3815 563.132 81.927 561.866 84.4595L562.119 84.5861C563.386 82.0536 565.538 79.0146 567.818 77.2418L596.182 53.1829H617.835L588.204 78.2548L619.734 116.369H614.289V116.496L614.163 116.369H600.487L576.681 87.3719L564.525 97.3754V116.496Z" fill="white"/>
<path d="M508.856 52.4232C524.052 52.5499 539.88 60.1474 542.666 76.2289L528.61 77.6218C525.951 69.6444 519.366 64.706 508.856 64.706C496.7 64.5793 487.583 72.0503 487.583 84.8395C487.583 97.5021 496.447 105.1 508.856 104.846C518.987 104.72 525.444 100.668 528.484 92.3104L542.666 93.7033C539.88 109.532 524.052 117.129 508.856 117.256C489.229 117.382 472.388 106.746 472.388 84.8395C472.388 62.9332 489.229 52.2966 508.856 52.4232Z" fill="white"/>
<path d="M393.747 98.5149C393.747 70.6572 444.778 86.2322 444.398 76.1021C444.018 67.7448 437.94 64.4525 426.797 64.4525C417.426 64.4525 409.702 66.6052 408.563 75.5956L395.267 74.3294C396.66 58.881 412.361 52.6763 426.67 52.8029C443.005 52.9295 459.086 58.6277 459.086 77.6216V98.1351C459.086 101.427 460.226 102.314 463.012 102.314H466.177V116.496H455.921C449.336 116.496 444.398 111.684 444.398 105.986V100.668C440.979 111.431 429.709 116.369 418.566 116.369C406.03 116.369 393.747 110.038 393.747 98.5149ZM408.816 98.1351C408.816 104.086 415.4 106.872 422.871 106.872C432.875 106.872 444.398 102.06 444.398 94.083V86.3588C434.901 92.3103 408.816 84.3328 408.816 98.1351Z" fill="white"/>
<path d="M313.885 141.821L313.758 53.1829H329.08V61.1603C329.08 64.0727 328.447 67.7449 327.434 70.5307L327.687 70.6573C328.574 67.8715 329.966 64.1994 331.992 62.1733C337.817 56.2219 347.821 52.2965 356.178 52.4231C376.058 52.5498 387.581 62.9331 387.581 84.8394C387.581 106.746 376.058 117.256 356.178 117.256C347.821 117.256 337.817 113.457 331.992 107.505C329.966 105.479 328.574 101.934 327.687 99.1482L327.434 99.2748C328.447 101.934 329.08 105.606 329.08 108.518V141.821H313.885ZM329.08 84.8394C329.08 96.9955 339.97 105.353 351.746 105.353C366.815 105.226 372.386 97.8819 372.386 84.8394C372.386 71.7969 366.815 65.0857 351.746 64.9591C339.97 64.9591 329.08 72.6833 329.08 84.8394Z" fill="white"/>
<path d="M270.57 117.256C250.816 117.382 233.975 106.746 233.975 84.8395C233.975 62.9332 250.816 52.2966 270.57 52.4232C290.324 52.5499 305.899 62.9332 305.899 84.8395C305.899 86.6123 305.772 86.7389 305.645 88.385H249.803C251.323 99.5281 259.933 105.48 270.95 105.353C280.7 105.226 287.791 102.82 290.957 93.9566L305.012 95.2228C300.327 112.064 286.778 117.129 270.57 117.256ZM270.95 63.693C260.567 63.5663 248.537 71.0373 249.803 88.385C251.703 81.5472 254.868 80.281 260.693 80.281H291.843C290.324 68.6314 281.84 63.8196 270.95 63.693Z" fill="white"/>
<path d="M187.503 72.0501C187.503 59.2609 193.201 53.1829 206.37 53.1829H233.722V67.365H211.182C204.218 67.365 202.698 68.5046 202.698 77.2418V116.496H187.503V72.0501Z" fill="white"/>
<path d="M78.698 0V26.35L131.046 78.6979L78.698 131.046V157.396L157.396 78.6979L78.698 0Z" fill="#07EDB5"/>
<path d="M78.698 104.868L52.5279 78.698L78.698 52.528V26.3501L26.3501 78.698L78.698 131.046V104.868Z" fill="#07EDB5"/>
<path d="M78.698 104.868L104.868 78.6981L78.698 52.5281V104.868Z" fill="#07EDB5"/>
</svg>
