<svg width="1748" height="435" viewBox="0 0 1748 435" fill="none" xmlns="http://www.w3.org/2000/svg">
<path d="M391.016 193.684V93.0258C391.016 82.2242 382.252 73.6143 371.612 73.6143H271.001C255.197 73.6143 239.55 76.745 224.998 82.6937C210.447 88.7989 197.147 97.5655 186.037 108.837L185.255 109.619C170.546 124.491 160.063 142.963 154.743 163.314C164.287 160.809 174.145 159.557 184.002 159.4C210.29 159.087 236.108 167.541 257.075 183.352C276.008 197.441 290.404 216.852 298.227 239.238C306.364 261.937 307.302 286.671 301.2 309.996C321.385 304.674 340.005 294.185 354.87 279.47L355.653 278.687C366.762 267.573 375.681 254.266 381.783 239.708C387.885 225.149 390.859 209.495 390.859 193.684H391.016Z" fill="#18E299"/>
<path d="M151.738 191.983C151.894 161.105 164.209 131.473 185.876 109.328L102.167 193.075C101.855 193.387 101.544 193.543 101.232 193.855C80.8112 214.129 68.4968 241.265 66.4703 269.961C64.5997 296.785 71.6143 323.297 86.579 345.442C88.0064 347.555 91.8794 348.25 94.0618 346.222L145.347 295.069C161.403 279.006 166.391 255.145 158.753 233.779C153.921 220.523 151.582 206.331 151.738 191.983Z" fill="#0C8C5E"/>
<path d="M355.166 278.694C339.11 294.446 319.001 305.362 297.177 310.197C275.198 315.032 252.439 313.628 231.239 306.142C231.239 306.142 231.083 306.142 230.927 306.142C209.571 298.501 185.721 303.491 169.666 319.398L118.38 370.552C116.197 372.735 116.509 376.322 119.159 378.037C141.294 392.853 167.795 400.027 194.607 398.155C223.289 396.128 250.257 383.807 270.677 363.377L271.457 362.598L355.166 278.85V278.694Z" fill="#0C8C5E"/>
<path d="M371.687 128.749C384.89 139.006 410.053 162.86 405.078 176.216C398.858 192.911 323.566 197.821 265.296 143.48C207.027 89.1391 123.757 83.9828 113.404 119.911C110.514 129.938 113.929 142.737 121.442 156.338M82.1117 295.611C53.1975 259.271 31.5649 204.041 58.7354 195.53C85.9059 187.018 138.61 347.095 235.507 378.194C332.404 409.293 384.127 341.203 368.741 312.068C364.257 303.577 353.485 295.761 339.256 288.421C333.958 285.689 328.182 283.022 322.072 280.411C316.448 278.008 310.542 275.652 304.467 273.335C274.044 261.731 239.398 251.11 214.837 240.467C193.272 231.123 169.204 213.263 149.816 193.302C145.01 188.354 140.492 183.277 136.371 178.169M121.442 156.338C125.392 163.488 130.476 170.861 136.371 178.169M121.442 156.338L136.371 178.169" stroke="white" stroke-width="8.42226"/>
<path d="M188.213 393.192C194.585 381.693 199.695 381.267 204.295 383.816C208.895 386.364 211.242 390.923 204.871 402.422C198.499 413.922 189.605 421.177 185.005 418.629C180.405 416.08 181.842 404.692 188.213 393.192Z" fill="#FF5900"/>
<path d="M175.209 299.079C166.512 308.938 161.43 308.255 157.487 304.776C153.543 301.297 152.231 296.34 160.929 286.481C169.626 276.622 179.873 271.451 183.817 274.93C187.76 278.408 183.906 289.221 175.209 299.079Z" fill="#15F8A6"/>
<path d="M20.3543 240.004C31.5957 233.188 36.2426 235.355 38.9693 239.852C41.6959 244.349 41.4698 249.471 30.2284 256.288C18.987 263.104 7.66364 264.985 4.93699 260.489C2.21035 255.992 9.11292 246.821 20.3543 240.004Z" fill="#15F8A6"/>
<path d="M281.927 361.87C280.518 374.941 275.975 377.317 270.746 376.754C265.518 376.191 261.585 372.901 262.993 359.83C264.402 346.759 269.782 336.619 275.011 337.183C280.239 337.746 283.336 348.799 281.927 361.87Z" fill="#FFD900"/>
<path d="M343.5 314.599C356.324 311.703 360.043 315.233 361.202 320.362C362.36 325.492 360.52 330.278 347.697 333.175C334.873 336.072 323.538 334.262 322.379 329.132C321.221 324.003 330.677 317.496 343.5 314.599Z" fill="#FF5900"/>
<path d="M170.135 69.9524C169.85 83.096 165.526 85.8523 160.269 85.7382C155.011 85.6241 150.811 82.6828 151.096 69.5392C151.382 56.3957 155.875 45.8332 161.132 45.9473C166.39 46.0614 170.421 56.8089 170.135 69.9524Z" fill="#FF5900"/>
<path d="M245.797 276.552C252.815 265.435 257.94 265.301 262.387 268.108C266.834 270.916 268.918 275.601 261.9 286.718C254.882 297.834 245.588 304.57 241.141 301.763C236.694 298.956 238.779 287.668 245.797 276.552Z" fill="#FF5900"/>
<path d="M190.555 129.851C193.921 117.143 198.771 115.48 203.855 116.826C208.938 118.173 212.329 122.019 208.963 134.727C205.597 147.436 198.748 156.646 193.664 155.3C188.581 153.954 187.189 142.56 190.555 129.851Z" fill="#D9FFF1"/>
<path d="M333.788 403.887C326.136 393.197 327.944 388.398 332.22 385.338C336.497 382.277 341.622 382.113 349.274 392.803C356.926 403.493 359.662 414.64 355.386 417.701C351.11 420.762 341.44 414.577 333.788 403.887Z" fill="#FFD900"/>
<path d="M407.195 207.678C399.543 196.987 401.351 192.189 405.627 189.128C409.903 186.067 415.028 185.903 422.68 196.593C430.332 207.284 433.069 218.431 428.793 221.492C424.516 224.553 414.847 218.368 407.195 207.678Z" fill="#FF5900"/>
<path d="M303.038 256.812L339.318 213.868L351.017 215.941V283.171C333.888 296.202 300.313 317.852 303.038 300.201C305.762 282.549 304.173 263.92 303.038 256.812Z" fill="#18E299"/>
<path d="M355.166 278.851L333.685 300.341L330.27 297.464C339.293 292.345 347.671 286.047 355.166 278.694V278.851Z" fill="#0C8C5E"/>
<path d="M391.015 164.181L311.483 130.306L391.015 94.4087V164.181Z" fill="#18E299"/>
<path d="M185.877 109.328C164.209 131.473 151.895 161.105 151.739 191.984C151.636 201.507 152.632 210.96 154.726 220.118L111.012 184.226L185.877 109.328Z" fill="#0C8C5E"/>
<path d="M131.387 308.993L94.0615 346.222C91.8792 348.249 88.0066 347.554 86.5791 345.442C71.6144 323.296 64.5992 296.785 66.4697 269.96C67.1351 260.539 68.9096 251.285 71.7158 242.387L131.387 308.993Z" fill="#0C8C5E"/>
<path d="M78.2618 250.649C89.8411 244.424 94.3696 246.83 96.8597 251.462C99.3498 256.093 98.8586 261.197 87.2793 267.423C75.6999 273.648 64.2944 274.94 61.8043 270.308C59.3142 265.676 66.6824 256.875 78.2618 250.649Z" fill="#FF5900"/>
<path d="M94.0787 182.485C88.5206 194.399 83.4526 195.179 78.687 192.956C73.9214 190.732 71.2628 186.348 76.8209 174.434C82.379 162.52 90.7481 154.664 95.5137 156.887C100.279 159.111 99.6368 170.571 94.0787 182.485Z" fill="#FFD900"/>
<path d="M318.048 144.288C310.931 155.342 305.804 155.43 301.382 152.584C296.961 149.737 294.919 145.033 302.036 133.979C309.153 122.926 318.506 116.273 322.928 119.119C327.349 121.966 325.164 133.235 318.048 144.288Z" fill="#D9FFF1"/>
<path d="M337.193 209.51C342.1 197.314 347.119 196.261 351.997 198.225C356.876 200.188 359.767 204.423 354.859 216.619C349.952 228.815 342.018 237.111 337.14 235.148C332.261 233.185 332.285 221.706 337.193 209.51Z" fill="#D9FFF1"/>
<path d="M389.675 31.4054C388.974 27.7289 393.387 25.303 396.115 27.8651L407.086 38.1684C408.306 39.3142 410.126 39.5441 411.592 38.7378L424.782 31.4872C428.062 29.6841 431.733 33.1315 430.139 36.518L423.73 50.1364C423.018 51.6509 423.361 53.452 424.581 54.5978L435.553 64.9012C438.281 67.4633 436.137 72.0198 432.424 71.5506L417.491 69.664C415.831 69.4541 414.224 70.3375 413.511 71.852L407.102 85.4704C405.509 88.8569 400.513 88.2256 399.811 84.5491L396.991 69.7647C396.678 68.1206 395.341 66.8653 393.681 66.6555L378.748 64.7688C375.035 64.2997 374.092 59.353 377.371 57.55L390.561 50.2994C392.028 49.4931 392.808 47.834 392.495 46.1898L389.675 31.4054Z" fill="#FFD900"/>
<path d="M1628.3 434.279H1571.78L1611.61 344.382L1531.96 165.346H1588.85L1635.27 277.579C1636.89 281.501 1642.45 281.494 1644.06 277.567L1690.13 165.346H1747.41L1628.3 434.279Z" fill="white"/>
<path d="M1456.63 355.002V210.863H1418.32V165.346H1456.63V140.69C1456.63 118.185 1463.46 100.483 1477.12 87.5867C1490.77 74.69 1508.09 68.2417 1529.08 68.2417C1541.98 68.2417 1552.98 69.6325 1562.08 72.4141V118.311C1556.01 116.035 1548.93 114.897 1540.84 114.897C1529.46 114.897 1521.24 117.426 1516.18 122.483C1511.13 127.288 1508.6 135.507 1508.6 147.139V165.346H1562.08V210.863H1508.6V355.002H1456.63Z" fill="white"/>
<path d="M1371.83 134.242C1362.98 134.242 1355.27 131.081 1348.7 124.759C1342.12 118.185 1338.83 110.345 1338.83 101.242C1338.83 92.1384 1342.12 84.4257 1348.7 78.1038C1355.27 71.5291 1362.98 68.2417 1371.83 68.2417C1381.19 68.2417 1389.03 71.5291 1395.35 78.1038C1401.93 84.4257 1405.21 92.1384 1405.21 101.242C1405.21 110.345 1401.93 118.185 1395.35 124.759C1389.03 131.081 1381.19 134.242 1371.83 134.242ZM1346.04 355.002V165.346H1398.01V355.002H1346.04Z" fill="white"/>
<path d="M1255.56 355.002V70.5176H1307.52V355.002H1255.56Z" fill="white"/>
<path d="M1196.85 357.278C1175.61 357.278 1158.16 351.462 1144.51 339.83C1131.1 327.945 1124.4 310.876 1124.4 288.623V210.864H1086.09V165.346H1124.4V112.622H1176.37V165.346H1229.85V210.864H1176.37V278.381C1176.37 290.014 1178.9 298.358 1183.96 303.416C1189.01 308.221 1197.23 310.623 1208.61 310.623C1216.7 310.623 1223.78 309.485 1229.85 307.209V353.106C1220.75 355.888 1209.75 357.278 1196.85 357.278Z" fill="white"/>
<path d="M891.593 355.002V165.346H943.558V179.208C943.558 181.553 946.748 182.589 948.301 180.833C959.886 167.726 976.386 161.173 997.8 161.173C1020.56 161.173 1038.39 168.76 1051.28 183.932C1064.43 198.852 1071.01 218.829 1071.01 243.864V355.002H1019.04V252.588C1019.04 238.68 1016.13 227.932 1010.32 220.346C1004.5 212.507 996.283 208.587 985.662 208.587C973.018 208.587 962.777 213.139 954.938 222.243C947.352 231.346 943.558 244.749 943.558 262.45V355.002H891.593Z" fill="white"/>
<path d="M826.899 134.242C818.049 134.242 810.336 131.081 803.761 124.759C797.186 118.185 793.899 110.345 793.899 101.242C793.899 92.1384 797.186 84.4257 803.761 78.1038C810.336 71.5291 818.049 68.2417 826.899 68.2417C836.256 68.2417 844.095 71.5291 850.417 78.1038C856.991 84.4257 860.279 92.1384 860.279 101.242C860.279 110.345 856.991 118.185 850.417 124.759C844.095 131.081 836.256 134.242 826.899 134.242ZM801.106 355.002V165.346H853.072V355.002H801.106Z" fill="white"/>
<path d="M712.885 355.002V253.726C712.885 223.634 703.023 208.587 683.299 208.587C671.919 208.587 662.816 212.886 655.988 221.484C649.413 230.082 645.873 242.852 645.367 259.795V355.002H593.402V253.726C593.402 223.634 583.539 208.587 563.815 208.587C552.183 208.587 542.953 213.139 536.125 222.243C529.298 231.346 525.884 244.749 525.884 262.45V355.002H473.918V165.346H525.884V179.345C525.884 181.677 529.019 182.704 530.551 180.945C542.032 167.764 557.292 161.173 576.332 161.173C601.354 161.173 620.201 171.504 632.871 192.164C633.871 193.794 636.33 193.769 637.324 192.136C642.802 183.132 650.414 175.973 660.161 170.656C671.287 164.334 682.54 161.173 693.919 161.173C716.425 161.173 733.874 168.633 746.265 183.553C758.656 198.472 764.851 218.955 764.851 245.001V355.002H712.885Z" fill="white"/>
</svg>
