<svg width="1747" height="438" viewBox="0 0 1747 438" fill="none" xmlns="http://www.w3.org/2000/svg">
<path d="M398.67 197.475V94.8472C398.67 83.8342 389.735 75.0557 378.887 75.0557H276.306C260.193 75.0557 244.239 78.2477 229.403 84.3128C214.566 90.5376 201.006 99.4758 189.679 110.968L188.881 111.766C173.885 126.928 163.196 145.762 157.772 166.511C167.503 163.958 177.553 162.681 187.604 162.521C214.406 162.202 240.73 170.821 262.107 186.941C281.411 201.306 296.088 221.097 304.065 243.922C312.361 267.065 313.318 292.283 307.096 316.065C327.676 310.638 346.661 299.944 361.817 284.941L362.615 284.143C373.942 272.811 383.035 259.244 389.256 244.4C395.478 229.557 398.51 213.596 398.51 197.475H398.67Z" fill="#18E299"/>
<path d="M154.709 195.742C154.868 164.258 167.423 134.047 189.515 111.468L104.167 196.855C103.849 197.173 103.531 197.332 103.213 197.65C82.3931 218.321 69.8376 245.988 67.7715 275.245C65.8643 302.595 73.0162 329.626 88.2738 352.205C89.7292 354.358 93.6781 355.067 95.9031 353L148.192 300.845C164.562 284.468 169.649 260.14 161.861 238.356C156.934 224.84 154.55 210.37 154.709 195.742Z" fill="#0C8C5E"/>
<path d="M362.118 284.15C345.748 300.21 325.245 311.341 302.994 316.27C280.585 321.199 257.381 319.768 235.766 312.136C235.766 312.136 235.606 312.136 235.448 312.136C213.674 304.344 189.357 309.433 172.987 325.651L120.697 377.806C118.472 380.032 118.79 383.689 121.491 385.438C144.06 400.544 171.08 407.858 198.416 405.95C227.66 403.883 255.155 391.321 275.976 370.491L276.77 369.696L362.118 284.309V284.15Z" fill="#0C8C5E"/>
<path d="M378.963 131.269C392.425 141.727 418.081 166.048 413.007 179.665C406.666 196.687 329.9 201.693 270.49 146.289C211.08 90.884 126.179 85.6267 115.624 122.258C112.678 132.482 116.159 145.531 123.819 159.398M83.7191 301.398C54.2389 264.347 32.1828 208.035 59.8852 199.357C87.5875 190.679 141.323 353.89 240.117 385.597C338.911 417.305 391.646 347.882 375.959 318.177C371.387 309.52 360.405 301.551 345.897 294.067C340.496 291.281 334.606 288.562 328.377 285.9C322.643 283.45 316.621 281.047 310.427 278.685C279.409 266.854 244.085 256.026 219.043 245.175C197.056 235.647 172.516 217.437 152.749 197.085C147.849 192.041 143.243 186.865 139.041 181.656M123.819 159.398C127.847 166.689 133.03 174.205 139.041 181.656M123.819 159.398L139.041 181.656" stroke="black" stroke-width="8.58713"/>
<path d="M191.898 400.89C198.394 389.165 203.604 388.731 208.294 391.329C212.984 393.928 215.378 398.576 208.881 410.3C202.384 422.025 193.316 429.423 188.626 426.824C183.937 424.225 185.401 412.614 191.898 400.89Z" fill="#FF5900"/>
<path d="M178.639 304.934C169.771 314.986 164.59 314.289 160.569 310.742C156.549 307.195 155.211 302.141 164.079 292.089C172.946 282.038 183.394 276.765 187.415 280.312C191.436 283.859 187.506 294.883 178.639 304.934Z" fill="#18E299"/>
<path d="M20.7528 244.703C32.2143 237.753 36.9522 239.963 39.7322 244.547C42.5122 249.132 42.2816 254.355 30.8202 261.305C19.3587 268.255 7.81373 270.173 5.03371 265.588C2.25368 261.003 9.29138 251.653 20.7528 244.703Z" fill="#15F8A6"/>
<path d="M287.446 368.954C286.01 382.281 281.377 384.704 276.046 384.13C270.716 383.555 266.705 380.201 268.142 366.874C269.578 353.547 275.064 343.209 280.394 343.784C285.725 344.358 288.882 355.628 287.446 368.954Z" fill="#FFBF00"/>
<path d="M350.225 320.758C363.299 317.804 367.091 321.404 368.272 326.633C369.454 331.863 367.578 336.743 354.503 339.697C341.429 342.65 329.872 340.805 328.69 335.575C327.509 330.345 337.15 323.711 350.225 320.758Z" fill="#FF5900"/>
<path d="M173.466 71.3219C173.175 84.7228 168.766 87.533 163.406 87.4167C158.045 87.3004 153.763 84.3015 154.054 70.9006C154.345 57.4998 158.926 46.7305 164.286 46.8469C169.647 46.9632 173.756 57.921 173.466 71.3219Z" fill="#FF5900"/>
<path d="M250.608 281.965C257.763 270.631 262.99 270.495 267.524 273.357C272.057 276.219 274.182 280.996 267.026 292.33C259.871 303.665 250.395 310.533 245.861 307.671C241.327 304.808 243.453 293.3 250.608 281.965Z" fill="#FF5900"/>
<path d="M194.285 132.394C197.717 119.437 202.662 117.741 207.845 119.114C213.028 120.487 216.486 124.408 213.054 137.365C209.622 150.322 202.638 159.713 197.455 158.341C192.272 156.968 190.853 145.351 194.285 132.394Z" fill="#D9FFF1"/>
<path d="M340.322 411.794C332.521 400.894 334.364 396.002 338.724 392.881C343.084 389.761 348.309 389.593 356.111 400.493C363.913 411.392 366.703 422.758 362.343 425.879C357.983 428.999 348.124 422.693 340.322 411.794Z" fill="#FFBF00"/>
<path d="M415.166 211.743C407.364 200.844 409.207 195.951 413.567 192.831C417.927 189.71 423.152 189.542 430.954 200.442C438.756 211.341 441.546 222.707 437.186 225.828C432.827 228.949 422.968 222.643 415.166 211.743Z" fill="#FF5900"/>
<path d="M308.97 261.84L345.96 218.055L357.888 220.169V288.715C340.424 302.001 306.191 324.075 308.97 306.078C311.748 288.081 310.127 269.087 308.97 261.84Z" fill="#18E299"/>
<path d="M362.118 284.31L340.216 306.221L336.735 303.288C345.935 298.069 354.477 291.647 362.118 284.15V284.31Z" fill="#0C8C5E"/>
<path d="M398.67 167.396L317.581 132.858L398.67 96.2573V167.396Z" fill="#18E299"/>
<path d="M189.516 111.468C167.424 134.047 154.868 164.259 154.709 195.742C154.603 205.451 155.619 215.09 157.754 224.426L113.184 187.833L189.516 111.468Z" fill="#0C8C5E"/>
<path d="M133.958 315.042L95.9033 353C93.6783 355.067 89.7288 354.359 88.2734 352.205C73.0158 329.626 65.8643 302.594 67.7715 275.245C68.4499 265.639 70.2581 256.205 73.1191 247.133L133.958 315.042Z" fill="#0C8C5E"/>
<path d="M79.7938 255.557C91.5998 249.209 96.2169 251.662 98.7557 256.384C101.295 261.107 100.794 266.311 88.9878 272.658C77.1818 279.005 65.5529 280.322 63.0141 275.6C60.4752 270.877 67.9878 261.904 79.7938 255.557Z" fill="#FF5900"/>
<path d="M95.9202 186.058C90.2533 198.205 85.0861 199 80.2272 196.733C75.3683 194.466 72.6577 189.996 78.3246 177.849C83.9915 165.702 92.5244 157.692 97.3833 159.959C102.242 162.226 101.587 173.91 95.9202 186.058Z" fill="#FFBF00"/>
<path d="M324.273 147.113C317.017 158.384 311.79 158.473 307.282 155.571C302.774 152.669 300.692 147.873 307.948 136.603C315.204 125.333 324.741 118.549 329.249 121.452C333.757 124.354 331.529 135.843 324.273 147.113Z" fill="#D9FFF1"/>
<path d="M343.793 213.611C348.797 201.176 353.914 200.103 358.888 202.105C363.862 204.106 366.81 208.424 361.806 220.859C356.802 233.294 348.713 241.752 343.739 239.75C338.765 237.749 338.789 226.046 343.793 213.611Z" fill="#D9FFF1"/>
<path d="M397.303 32.0204C396.588 28.2719 401.087 25.7985 403.869 28.4108L415.055 38.9158C416.299 40.084 418.154 40.3184 419.65 39.4963L433.097 32.1037C436.441 30.2654 440.184 33.7802 438.559 37.233L432.025 51.118C431.298 52.6622 431.649 54.4986 432.893 55.6668L444.079 66.1718C446.861 68.7841 444.674 73.4298 440.888 72.9515L425.664 71.0279C423.971 70.8139 422.332 71.7146 421.606 73.2587L415.072 87.1437C413.447 90.5965 408.353 89.9529 407.638 86.2044L404.763 71.1306C404.443 69.4543 403.08 68.1744 401.387 67.9605L386.163 66.0369C382.377 65.5586 381.415 60.5151 384.759 58.6768L398.206 51.2843C399.702 50.4621 400.498 48.7705 400.178 47.0942L397.303 32.0204Z" fill="#FFBF00"/>
<path d="M1627.22 437.854H1570.7L1610.53 347.957L1530.88 168.921H1587.77L1634.19 281.153C1635.81 285.076 1641.37 285.069 1642.98 281.142L1689.05 168.921H1746.33L1627.22 437.854Z" fill="black"/>
<path d="M1455.55 358.577V214.438H1417.24V168.921H1455.55V144.265C1455.55 121.759 1462.38 104.058 1476.04 91.1614C1489.69 78.2647 1507.01 71.8164 1528 71.8164C1540.9 71.8164 1551.9 73.2072 1561 75.9888V121.886C1554.93 119.61 1547.85 118.472 1539.76 118.472C1528.38 118.472 1520.16 121.001 1515.1 126.058C1510.05 130.863 1507.52 139.081 1507.52 150.713V168.921H1561V214.438H1507.52V358.577H1455.55Z" fill="black"/>
<path d="M1370.75 137.817C1361.9 137.817 1354.19 134.656 1347.62 128.334C1341.04 121.759 1337.75 113.92 1337.75 104.817C1337.75 95.7131 1341.04 88.0004 1347.62 81.6786C1354.19 75.1038 1361.9 71.8164 1370.75 71.8164C1380.11 71.8164 1387.95 75.1038 1394.27 81.6786C1400.85 88.0004 1404.13 95.7131 1404.13 104.817C1404.13 113.92 1400.85 121.759 1394.27 128.334C1387.95 134.656 1380.11 137.817 1370.75 137.817ZM1344.96 358.577V168.921H1396.93V358.577H1344.96Z" fill="black"/>
<path d="M1254.48 358.577V74.0923H1306.44V358.577H1254.48Z" fill="black"/>
<path d="M1195.77 360.853C1174.53 360.853 1157.08 355.037 1143.43 343.405C1130.02 331.52 1123.32 314.451 1123.32 292.198V214.438H1085.01V168.921H1123.32V116.196H1175.29V168.921H1228.77V214.438H1175.29V281.956C1175.29 293.588 1177.82 301.933 1182.88 306.991C1187.93 311.795 1196.15 314.198 1207.53 314.198C1215.62 314.198 1222.7 313.06 1228.77 310.784V356.681C1219.67 359.462 1208.67 360.853 1195.77 360.853Z" fill="black"/>
<path d="M890.512 358.577V168.921H942.478V182.783C942.478 185.127 945.668 186.164 947.221 184.407C958.806 171.301 975.305 164.748 996.72 164.748C1019.48 164.748 1037.31 172.334 1050.2 187.507C1063.35 202.426 1069.93 222.404 1069.93 247.438V358.577H1017.96V256.162C1017.96 242.254 1015.05 231.507 1009.24 223.921C1003.42 216.082 995.203 212.162 984.582 212.162C971.938 212.162 961.697 216.714 953.857 225.817C946.271 234.921 942.478 248.323 942.478 266.025V358.577H890.512Z" fill="black"/>
<path d="M825.819 137.817C816.968 137.817 809.256 134.656 802.681 128.334C796.106 121.759 792.819 113.92 792.819 104.817C792.819 95.7131 796.106 88.0004 802.681 81.6786C809.256 75.1038 816.968 71.8164 825.819 71.8164C835.175 71.8164 843.014 75.1038 849.336 81.6786C855.911 88.0004 859.198 95.7131 859.198 104.817C859.198 113.92 855.911 121.759 849.336 128.334C843.014 134.656 835.175 137.817 825.819 137.817ZM800.026 358.577V168.921H851.991V358.577H800.026Z" fill="black"/>
<path d="M711.805 358.577V257.3C711.805 227.208 701.943 212.162 682.219 212.162C670.839 212.162 661.736 216.461 654.908 225.059C648.333 233.657 644.793 246.427 644.287 263.369V358.577H592.321V257.3C592.321 227.208 582.459 212.162 562.735 212.162C551.103 212.162 541.873 216.714 535.045 225.817C528.217 234.921 524.804 248.323 524.804 266.025V358.577H472.838V168.921H524.804V182.92C524.804 185.251 527.939 186.279 529.471 184.52C540.951 171.339 556.212 164.748 575.252 164.748C600.274 164.748 619.12 175.078 631.791 195.739C632.79 197.369 635.25 197.344 636.244 195.71C641.722 186.707 649.334 179.547 659.08 174.231C670.207 167.909 681.46 164.748 692.839 164.748C715.345 164.748 732.794 172.208 745.184 187.128C757.575 202.047 763.771 222.53 763.771 248.576V358.577H711.805Z" fill="black"/>
</svg>
