<svg width="738" height="158" viewBox="0 0 738 158" fill="none" xmlns="http://www.w3.org/2000/svg">
<path d="M689.249 53.35H692.288C698.619 53.35 705.457 42.2069 705.457 32.8366L720.779 32.71C720.652 40.1809 717.107 48.0317 710.396 51.7039C708.243 53.0968 704.697 53.4766 702.165 53.9831V54.2364C704.697 53.7299 708.116 53.35 710.775 53.35H734.834V67.4055H717.36V96.1496C717.36 101.595 720.272 102.861 724.324 102.861H738V117.043H723.311C706.344 117.043 702.165 109.572 702.165 93.8703V67.4055H689.249V53.35Z" fill="#0E0F11"/>
<path d="M651.808 117.803C632.055 117.929 615.213 107.293 615.213 85.3864C615.213 63.4801 632.055 52.8435 651.808 52.9701C671.562 53.0967 687.137 63.4801 687.137 85.3864C687.137 87.1591 687.01 87.2858 686.884 88.9319H631.042C632.561 100.075 641.172 106.026 652.188 105.9C661.938 105.773 669.029 103.367 672.195 94.5035L686.251 95.7697C681.565 112.611 668.016 117.676 651.808 117.803ZM652.188 64.2398C641.805 64.1132 629.775 71.5841 631.042 88.9319C632.941 82.0941 636.107 80.8278 641.931 80.8278H673.081C671.562 69.1782 663.078 64.3665 652.188 64.2398Z" fill="#0E0F11"/>
<path d="M564.525 117.043H549.204V28.4045H564.525L564.145 76.0159C564.145 78.9283 563.132 82.4739 561.866 85.0064L562.119 85.133C563.386 82.6005 565.538 79.5615 567.818 77.7887L596.182 53.7298H617.835L588.204 78.8017L619.734 116.916H614.289V117.043L614.163 116.916H600.487L576.681 87.9188L564.525 97.9222V117.043Z" fill="#0E0F11"/>
<path d="M508.856 52.9701C524.052 53.0967 539.88 60.6943 542.666 76.7758L528.61 78.1687C525.951 70.1913 519.366 65.2528 508.856 65.2528C496.7 65.1262 487.583 72.5972 487.583 85.3864C487.583 98.049 496.447 105.647 508.856 105.393C518.987 105.267 525.444 101.215 528.484 92.8573L542.666 94.2502C539.88 110.078 524.052 117.676 508.856 117.803C489.229 117.929 472.388 107.293 472.388 85.3864C472.388 63.4801 489.229 52.8435 508.856 52.9701Z" fill="#0E0F11"/>
<path d="M393.747 99.0618C393.747 71.2041 444.778 86.7791 444.398 76.649C444.018 68.2917 437.94 64.9994 426.797 64.9994C417.426 64.9994 409.702 67.152 408.563 76.1425L395.267 74.8762C396.66 59.4279 412.361 53.2232 426.67 53.3498C443.005 53.4764 459.086 59.1746 459.086 78.1685V98.6819C459.086 101.974 460.226 102.861 463.012 102.861H466.177V117.043H455.921C449.336 117.043 444.398 112.231 444.398 106.533V101.214C440.979 111.978 429.709 116.916 418.566 116.916C406.03 116.916 393.747 110.585 393.747 99.0618ZM408.816 98.6819C408.816 104.633 415.4 107.419 422.871 107.419C432.875 107.419 444.398 102.607 444.398 94.6299V86.9057C434.901 92.8571 408.816 84.8797 408.816 98.6819Z" fill="#0E0F11"/>
<path d="M313.885 142.368L313.758 53.7298H329.08V61.7072C329.08 64.6196 328.447 68.2918 327.434 71.0775L327.687 71.2042C328.574 68.4184 329.966 64.7462 331.992 62.7202C337.817 56.7688 347.821 52.8434 356.178 52.97C376.058 53.0966 387.581 63.48 387.581 85.3863C387.581 107.293 376.058 117.803 356.178 117.803C347.821 117.803 337.817 114.004 331.992 108.052C329.966 106.026 328.574 102.481 327.687 99.695L327.434 99.8217C328.447 102.481 329.08 106.153 329.08 109.065V142.368H313.885ZM329.08 85.3863C329.08 97.5424 339.97 105.9 351.746 105.9C366.815 105.773 372.386 98.4288 372.386 85.3863C372.386 72.3438 366.815 65.6326 351.746 65.506C339.97 65.506 329.08 73.2302 329.08 85.3863Z" fill="#0E0F11"/>
<path d="M270.57 117.803C250.816 117.929 233.975 107.293 233.975 85.3864C233.975 63.4801 250.816 52.8435 270.57 52.9701C290.324 53.0967 305.899 63.4801 305.899 85.3864C305.899 87.1591 305.772 87.2858 305.645 88.9319H249.803C251.323 100.075 259.933 106.026 270.95 105.9C280.7 105.773 287.791 103.367 290.957 94.5035L305.012 95.7697C300.327 112.611 286.778 117.676 270.57 117.803ZM270.95 64.2398C260.567 64.1132 248.537 71.5841 249.803 88.9319C251.703 82.0941 254.868 80.8278 260.693 80.8278H291.843C290.324 69.1782 281.84 64.3665 270.95 64.2398Z" fill="#0E0F11"/>
<path d="M187.503 72.597C187.503 59.8078 193.201 53.7297 206.37 53.7297H233.722V67.9119H211.182C204.218 67.9119 202.698 69.0515 202.698 77.7887V117.043H187.503V72.597Z" fill="#0E0F11"/>
<path d="M78.698 0.546875V26.8969L131.046 79.2448L78.698 131.593V157.943L157.396 79.2448L78.698 0.546875Z" fill="#07EDB5"/>
<path d="M78.698 105.415L52.5279 79.2449L78.698 53.0748V26.897L26.3501 79.2449L78.698 131.593V105.415Z" fill="#07EDB5"/>
<path d="M78.698 105.415L104.868 79.245L78.698 53.075V105.415Z" fill="#07EDB5"/>
</svg>
