<svg width="2173" height="474" viewBox="0 0 2173 474" fill="none" xmlns="http://www.w3.org/2000/svg">
<path d="M615.759 53.7272H713.718L796.814 256.355H800.649L883.746 53.7272H981.704V381H904.68V179.97H901.963L823.341 378.923H774.122L695.5 178.852H692.784V381H615.759V53.7272ZM1013.04 381V135.545H1091.19V381H1013.04ZM1052.19 106.941C1041.22 106.941 1031.79 103.319 1023.91 96.0749C1016.03 88.7236 1012.08 79.8813 1012.08 69.5475C1012.08 59.3202 1016.03 50.5844 1023.91 43.3401C1031.79 35.9892 1041.22 32.3138 1052.19 32.3138C1063.27 32.3138 1072.7 35.9892 1080.48 43.3401C1088.36 50.5844 1092.3 59.3202 1092.3 69.5475C1092.3 79.8813 1088.36 88.7236 1080.48 96.0749C1072.7 103.319 1063.27 106.941 1052.19 106.941ZM1201.07 241.014V381H1122.92V135.545H1197.23V180.609H1199.95C1205.38 165.588 1214.65 153.816 1227.75 145.293C1240.86 136.664 1256.46 132.349 1274.57 132.349C1291.83 132.349 1306.8 136.238 1319.48 144.015C1332.26 151.685 1342.17 162.445 1349.2 176.295C1356.34 190.038 1359.86 206.124 1359.75 224.555V381H1281.61V239.896C1281.71 226.259 1278.25 215.606 1271.22 207.935C1264.29 200.265 1254.65 196.43 1242.29 196.43C1234.09 196.43 1226.85 198.241 1220.56 201.863C1214.38 205.379 1209.59 210.439 1206.18 217.044C1202.88 223.649 1201.17 231.639 1201.07 241.014ZM1528.68 135.545V193.074H1373.83V135.545H1528.68ZM1406.27 76.7385H1484.41V303.816C1484.41 308.61 1485.16 312.499 1486.65 315.482C1488.25 318.358 1490.54 320.435 1493.52 321.714C1496.5 322.886 1500.07 323.472 1504.23 323.472C1507.21 323.472 1510.35 323.205 1513.65 322.673C1517.06 322.033 1519.62 321.501 1521.33 321.075L1533.15 377.484C1529.42 378.55 1524.15 379.881 1517.33 381.479C1510.62 383.077 1502.58 384.089 1493.2 384.516C1474.88 385.368 1459.16 383.237 1446.06 378.124C1433.06 372.903 1423.1 364.807 1416.18 353.834C1409.36 342.861 1406.06 329.065 1406.27 312.445V76.7385ZM1633.96 53.7272V381H1555.82V53.7272H1633.96ZM1665.7 381V135.545H1743.84V381H1665.7ZM1704.85 106.941C1693.88 106.941 1684.45 103.319 1676.57 96.0749C1668.68 88.7236 1664.74 79.8813 1664.74 69.5475C1664.74 59.3202 1668.68 50.5844 1676.57 43.3401C1684.45 35.9892 1693.88 32.3138 1704.85 32.3138C1715.93 32.3138 1725.36 35.9892 1733.14 43.3401C1741.02 50.5844 1744.96 59.3202 1744.96 69.5475C1744.96 79.8813 1741.02 88.7236 1733.14 96.0749C1725.36 103.319 1715.93 106.941 1704.85 106.941ZM1915.09 135.545V193.074H1757.2V135.545H1915.09ZM1790.12 381V123.081C1790.12 104.118 1793.69 88.404 1800.83 75.9395C1807.97 63.3685 1817.88 53.9935 1830.55 47.8145C1843.23 41.529 1857.88 38.3862 1874.5 38.3862C1885.37 38.3862 1895.59 39.2385 1905.18 40.9431C1914.88 42.5411 1922.07 43.9793 1926.75 45.2577L1914.29 102.467C1911.41 101.508 1907.9 100.709 1903.74 100.07C1899.69 99.4299 1895.86 99.1109 1892.24 99.1109C1883.07 99.1109 1876.79 101.135 1873.38 105.183C1869.97 109.232 1868.27 114.771 1868.27 121.803V381H1790.12ZM1982.46 473.045C1973.09 473.045 1964.24 472.3 1955.93 470.808C1947.63 469.423 1940.49 467.559 1934.52 465.215L1951.78 408.486C1959.45 411.043 1966.38 412.534 1972.55 412.96C1978.84 413.386 1984.22 412.374 1988.69 409.924C1993.28 407.58 1996.79 403.372 1999.24 397.3L2002.28 389.949L1915.03 135.545H1996.84L2042.07 310.688H2044.62L2090.49 135.545H2172.78L2080.26 404.491C2075.79 417.914 2069.45 429.739 2061.24 439.967C2053.15 450.3 2042.65 458.397 2029.76 464.256C2016.98 470.116 2001.21 473.045 1982.46 473.045Z" fill="#0F172A"/>
<path d="M123.833 171.492C124.162 126.734 141.911 83.8646 173.318 51.9746H173.261L52.0067 173.228H52.0646C51.6132 173.584 51.1877 173.97 50.7913 174.386C21.3025 203.836 3.4239 242.934 0.43643 284.503C-2.55101 326.071 9.5532 367.324 34.5277 400.688L156.997 278.219L158.27 277.003C135.444 246.606 123.334 209.502 123.833 171.492Z" fill="#DA5700"/>
<path d="M418.257 296.971C395.05 319.714 365.919 335.479 334.185 342.469C302.452 349.458 269.393 347.39 238.778 336.501C222.455 330.707 207.114 322.451 193.286 312.019L192.013 313.292L69.5439 435.704C102.922 460.616 144.151 472.682 185.694 469.695C227.237 466.709 266.316 448.87 295.788 419.44L297.003 418.225L418.257 296.971Z" fill="#DA5700"/>
<path d="M470.231 173.228V8.0001C470.231 3.5818 466.649 8.67365e-05 462.231 8.67365e-05H297.003C274.252 -0.0227133 251.721 4.4497 230.704 13.1605C209.687 21.8713 190.598 34.6487 174.534 50.7589L173.318 51.9743C152.144 73.4707 136.994 100.157 129.389 129.357C143.156 125.792 157.304 123.907 171.524 123.743C209.536 123.295 246.629 135.422 277.035 158.238C304.362 178.617 325.045 206.63 336.476 238.746C348.125 271.571 349.658 307.137 340.874 340.842C370.079 333.25 396.769 318.098 418.257 296.913L419.472 295.755C435.589 279.684 448.371 260.586 457.082 239.558C465.793 218.531 470.262 195.989 470.231 173.228Z" fill="#FF7F2A"/>
</svg>
