<svg width="184" height="100" viewBox="0 0 184 100" fill="none" xmlns="http://www.w3.org/2000/svg">
<g filter="url(#filter0_d_6017_6139)">
<path d="M2 9C2 4.58172 5.58172 1 10 1H174C178.418 1 182 4.58172 182 9V20.3813C182 24.7996 178.418 28.3813 174 28.3813H10C5.58172 28.3813 2 24.7996 2 20.3813V9Z" fill="white" shape-rendering="crispEdges"/>
<path d="M10 1.5H174C178.142 1.5 181.5 4.85786 181.5 9V20.3809C181.5 24.523 178.142 27.8809 174 27.8809H10C5.85786 27.8809 2.5 24.523 2.5 20.3809V9C2.5 4.85786 5.85786 1.5 10 1.5Z" stroke="#0B0C0E" shape-rendering="crispEdges"/>
<path d="M10 13C10 10.7909 11.7909 9 14 9H125.866C128.076 9 129.866 10.7909 129.866 13V16.3813C129.866 18.5904 128.076 20.3813 125.866 20.3813H14C11.7909 20.3813 10 18.5904 10 16.3813V13Z" fill="#0B0C0E"/>
<path d="M165.528 16.0791L169 12.6069L172.472 16.0791" stroke="#0B0C0E" stroke-width="1.5" stroke-linecap="round" stroke-linejoin="round"/>
</g>
<path d="M2 41.3809C2 36.9626 5.58172 33.3809 10 33.3809H174C178.418 33.3809 182 36.9626 182 41.3809V91.5247C182 95.943 178.418 99.5247 174 99.5247H10C5.58172 99.5247 2 95.943 2 91.5247V41.3809Z" fill="white"/>
<path d="M10 45.3809C10 43.1717 11.7909 41.3809 14 41.3809H170C172.209 41.3809 174 43.1717 174 45.3809V48.7621C174 50.9713 172.209 52.7621 170 52.7621H14C11.7909 52.7621 10 50.9713 10 48.7621V45.3809Z" fill="#F5F5F5"/>
<path d="M10 64.7617C10 62.5526 11.7909 60.7617 14 60.7617H170C172.209 60.7617 174 62.5526 174 64.7617V68.143C174 70.3521 172.209 72.143 170 72.143H14C11.7909 72.143 10 70.3521 10 68.143V64.7617Z" fill="#F5F5F5"/>
<path d="M10 84.1436C10 81.9344 11.7909 80.1436 14 80.1436H103.43C105.639 80.1436 107.43 81.9344 107.43 84.1436V87.5248C107.43 89.734 105.639 91.5248 103.43 91.5248H14C11.7909 91.5248 10 89.734 10 87.5248V84.1436Z" fill="#F5F5F5"/>
<defs>
<filter id="filter0_d_6017_6139" x="0" y="0" width="184" height="31.3809" filterUnits="userSpaceOnUse" color-interpolation-filters="sRGB">
<feFlood flood-opacity="0" result="BackgroundImageFix"/>
<feColorMatrix in="SourceAlpha" type="matrix" values="0 0 0 0 0 0 0 0 0 0 0 0 0 0 0 0 0 0 127 0" result="hardAlpha"/>
<feOffset dy="1"/>
<feGaussianBlur stdDeviation="1"/>
<feComposite in2="hardAlpha" operator="out"/>
<feColorMatrix type="matrix" values="0 0 0 0 0.0784314 0 0 0 0 0.0823529 0 0 0 0 0.101961 0 0 0 0.05 0"/>
<feBlend mode="normal" in2="BackgroundImageFix" result="effect1_dropShadow_6017_6139"/>
<feBlend mode="normal" in="SourceGraphic" in2="effect1_dropShadow_6017_6139" result="shape"/>
</filter>
</defs>
</svg>
